%TF.GenerationSoftware,KiCad,Pcbnew,9.0.7*%
%TF.CreationDate,2026-02-11T00:05:44+01:00*%
%TF.ProjectId,BlinkerLED,426c696e-6b65-4724-9c45-442e6b696361,rev?*%
%TF.SameCoordinates,Original*%
%TF.FileFunction,Profile,NP*%
%FSLAX46Y46*%
G04 Gerber Fmt 4.6, Leading zero omitted, Abs format (unit mm)*
G04 Created by KiCad (PCBNEW 9.0.7) date 2026-02-11 00:05:44*
%MOMM*%
%LPD*%
G01*
G04 APERTURE LIST*
%TA.AperFunction,Profile*%
%ADD10C,0.026000*%
%TD*%
G04 APERTURE END LIST*
D10*
X66932600Y-78102995D02*
X67266267Y-77346333D01*
X102305420Y-143228104D02*
X101782892Y-143508320D01*
X139649765Y-66605212D02*
X140832501Y-66055646D01*
X121490481Y-148337568D02*
X120922354Y-148422459D01*
X100567961Y-59727605D02*
X101363322Y-61526059D01*
X75543634Y-129737780D02*
X76038514Y-129126512D01*
X151004848Y-116692687D02*
X148249398Y-116525900D01*
X77887531Y-74695892D02*
X77267192Y-73752668D01*
X76876846Y-74188994D02*
X77261137Y-74873948D01*
X63839423Y-86519995D02*
X65813353Y-86441687D01*
X87347941Y-143736802D02*
X89326558Y-141983156D01*
X112485299Y-60487825D02*
X112289166Y-58664384D01*
X144178556Y-68586791D02*
X143359294Y-70150708D01*
X150078826Y-122900669D02*
X150517090Y-123455678D01*
X147280232Y-117424630D02*
X147491240Y-116762305D01*
X86168054Y-145214977D02*
X85129433Y-144938875D01*
X148980012Y-76333662D02*
X147552030Y-76597861D01*
X66530990Y-104918534D02*
X67461890Y-105131180D01*
X106885786Y-55808413D02*
X107324605Y-54593032D01*
X68511446Y-76618015D02*
X69347492Y-76689115D01*
X94823561Y-147015948D02*
X95005581Y-147785944D01*
X60824859Y-89936068D02*
X61001145Y-89092962D01*
X65975467Y-87767027D02*
X67079637Y-87821837D01*
X101681052Y-144599107D02*
X101506149Y-144855163D01*
X112260607Y-142638947D02*
X112149690Y-142935141D01*
X94392120Y-62735658D02*
X94159199Y-62954920D01*
X72696199Y-127023125D02*
X70920080Y-127507010D01*
X134545297Y-142139691D02*
X134450527Y-140921741D01*
X82766456Y-62196037D02*
X82623399Y-60856756D01*
X70708046Y-115747238D02*
X70491409Y-115440655D01*
X75552848Y-137505751D02*
X74491946Y-136916747D01*
X148575652Y-87605518D02*
X148279667Y-87601887D01*
X155758042Y-114070007D02*
X155610491Y-114510035D01*
X74406192Y-68795069D02*
X74347199Y-68428209D01*
X63940193Y-91547592D02*
X62556817Y-90370925D01*
X67180750Y-108793066D02*
X67374987Y-108071441D01*
X75955964Y-127389949D02*
X75633402Y-126997680D01*
X125625610Y-64492534D02*
X125787368Y-64634321D01*
X72722060Y-135303963D02*
X73425468Y-133557494D01*
X142437195Y-73883227D02*
X141821338Y-74777800D01*
X76863515Y-130104453D02*
X77296792Y-129538176D01*
X148872188Y-126546893D02*
X147917042Y-126335928D01*
X62144479Y-112379206D02*
X61835976Y-113141708D01*
X69268360Y-82716482D02*
X69759696Y-82952628D01*
X121310578Y-53514932D02*
X122382321Y-53856171D01*
X66861057Y-76607845D02*
X66824686Y-76755980D01*
X110886512Y-52067725D02*
X111657069Y-53712896D01*
X141272455Y-126425731D02*
X140466717Y-127520668D01*
X61952657Y-103780986D02*
X63827456Y-104431552D01*
X144215695Y-136356044D02*
X143565369Y-137004333D01*
X99099855Y-147584959D02*
X100177143Y-145846203D01*
X111974354Y-56792045D02*
X111206097Y-54346574D01*
X135086371Y-141551925D02*
X135079960Y-142190955D01*
X135224140Y-59781758D02*
X135404297Y-60613447D01*
X152012208Y-126280243D02*
X151761036Y-126362725D01*
X106433924Y-53579898D02*
X107168594Y-52067725D01*
X142246366Y-65475904D02*
X142944234Y-65626031D01*
X95217586Y-146510215D02*
X95200754Y-144955736D01*
X96531024Y-54464806D02*
X95750230Y-54669354D01*
X92008718Y-139296923D02*
X93032526Y-139643894D01*
X73412370Y-126747745D02*
X72696199Y-127023125D01*
X84507791Y-136202108D02*
X84419754Y-135419922D01*
X119363372Y-148018630D02*
X119901996Y-148623426D01*
X148043598Y-83926804D02*
X147734149Y-84090881D01*
X152528914Y-116752999D02*
X151004848Y-116692687D01*
X82117149Y-68924510D02*
X82279725Y-68975465D01*
X79972291Y-135149469D02*
X80599522Y-134670395D01*
X132623828Y-145076911D02*
X131591615Y-144875853D01*
X101301231Y-58116810D02*
X101537809Y-58667303D01*
X72653551Y-77676459D02*
X73375657Y-77989905D01*
X114729876Y-61202158D02*
X115390357Y-61259810D01*
X86446402Y-58368543D02*
X87141711Y-58852261D01*
X73242933Y-76559295D02*
X73845974Y-76795736D01*
X112485299Y-142724667D02*
X114549049Y-142615864D01*
X125015754Y-139100684D02*
X124367624Y-139411403D01*
X84246582Y-141431078D02*
X84647653Y-139886741D01*
X68062350Y-106778352D02*
X68126820Y-107659830D01*
X121582526Y-54875964D02*
X122244652Y-55318269D01*
X72734046Y-126161507D02*
X75122651Y-125299890D01*
X65183322Y-116744573D02*
X63245506Y-116592317D01*
X95621425Y-141022243D02*
X95677676Y-140624668D01*
X117692209Y-144076571D02*
X117423560Y-143411116D01*
X74394722Y-136015203D02*
X75869548Y-136818961D01*
X142616303Y-77564665D02*
X142068410Y-76981785D01*
X93032526Y-139643894D02*
X93659389Y-139898992D01*
X71214391Y-83009284D02*
X70693013Y-82592016D01*
X84632043Y-59285048D02*
X83658062Y-59931979D01*
X143522519Y-135140699D02*
X142552587Y-136103305D01*
X138651828Y-134711028D02*
X137417224Y-133793750D01*
X70315505Y-117919631D02*
X69812994Y-116659740D01*
X135375270Y-132882668D02*
X134476373Y-133330120D01*
X84846777Y-66667221D02*
X85122588Y-67183711D01*
X124258370Y-62063761D02*
X124443726Y-62484334D01*
X107168594Y-52067725D02*
X109027553Y-52067725D01*
X151559898Y-126323883D02*
X151473090Y-125967593D01*
X75833099Y-66647456D02*
X77499500Y-67364940D01*
X146613411Y-120083913D02*
X147007912Y-120259330D01*
X111329415Y-150665142D02*
X110689967Y-151064978D01*
X74336705Y-70311988D02*
X74651558Y-71010871D01*
X74833926Y-133303249D02*
X75975218Y-131331837D01*
X66235267Y-76581422D02*
X66936290Y-75804475D01*
X147337402Y-86363676D02*
X147074768Y-85787090D01*
X66826046Y-94510093D02*
X66109436Y-94124645D01*
X64606299Y-105209958D02*
X63482910Y-104952368D01*
X150156244Y-105653006D02*
X150435677Y-105156045D01*
X122227597Y-54379125D02*
X121642712Y-54319402D01*
X84012692Y-140159899D02*
X83654317Y-141865958D01*
X68309413Y-122961429D02*
X69823499Y-121374528D01*
X152487027Y-79309225D02*
X152127805Y-79817867D01*
X141443516Y-74104518D02*
X141927337Y-73538165D01*
X66555155Y-108929113D02*
X66929714Y-108862125D01*
X67366869Y-97264860D02*
X67379586Y-96619036D01*
X98838590Y-54358737D02*
X99258394Y-54846971D01*
X156825858Y-114540523D02*
X156094735Y-115882741D01*
X84286510Y-67046992D02*
X83991694Y-66450728D01*
X62437720Y-91361525D02*
X62614174Y-91419870D01*
X69797859Y-87161110D02*
X68502805Y-87156149D01*
X125581670Y-138835046D02*
X125015754Y-139100684D01*
X104932554Y-60023676D02*
X105315904Y-57557873D01*
X110333126Y-53055182D02*
X109526882Y-52770927D01*
X83528708Y-65312335D02*
X82766456Y-62196037D01*
X123603393Y-59345976D02*
X123520331Y-57634247D01*
X91867528Y-64129201D02*
X91202893Y-64047512D01*
X133843383Y-59528347D02*
X132935534Y-59156562D01*
X154619952Y-92893008D02*
X152763243Y-93880853D01*
X123211413Y-147333754D02*
X123340558Y-147062960D01*
X71771454Y-76058396D02*
X73242933Y-76559295D01*
X84419754Y-135419922D02*
X84005549Y-135161123D01*
X98147936Y-149523416D02*
X97094269Y-149669873D01*
X69878571Y-76284728D02*
X68756002Y-76213629D01*
X62243091Y-113365657D02*
X62579437Y-112659962D01*
X150488398Y-76392744D02*
X149559322Y-76279640D01*
X85277095Y-143688343D02*
X84309074Y-142666573D01*
X148785743Y-120906545D02*
X147612875Y-119910375D01*
X143541641Y-131046550D02*
X144245380Y-132241963D01*
X76845195Y-136929125D02*
X77413023Y-136838665D01*
X151462247Y-105597784D02*
X150969213Y-106077259D01*
X66141504Y-87093417D02*
X64076929Y-87219815D01*
X102131132Y-142382694D02*
X102567879Y-142418734D01*
X77317828Y-75067598D02*
X77224800Y-75284664D01*
X93603868Y-140806777D02*
X93072160Y-140444719D01*
X124072796Y-58708069D02*
X124086040Y-59703807D01*
X85485337Y-58146139D02*
X86446402Y-58368543D01*
X100177143Y-145846203D02*
X100622900Y-144907971D01*
X124568096Y-62558369D02*
X125114459Y-62752192D01*
X73845974Y-76795736D02*
X74774784Y-77001906D01*
X157376214Y-100161944D02*
X156814649Y-99782831D01*
X68756002Y-76213629D02*
X67346304Y-76370081D01*
X153789982Y-115419217D02*
X151787134Y-115450420D01*
X154042857Y-86558519D02*
X155467017Y-86926222D01*
X60917484Y-100866988D02*
X61224352Y-100343275D01*
X65408242Y-92415215D02*
X65212241Y-92352125D01*
X84596276Y-68960880D02*
X85325038Y-68029125D01*
X153979259Y-111565893D02*
X154646728Y-111971179D01*
X71325248Y-86293995D02*
X71601142Y-85588257D01*
X150719112Y-107194946D02*
X150630945Y-108083855D01*
X116612799Y-143022512D02*
X116683060Y-143381420D01*
X134271352Y-63840212D02*
X134664738Y-61936054D01*
X124014267Y-140948476D02*
X124140745Y-143974350D01*
X135047256Y-140520386D02*
X135086371Y-141551925D01*
X96731972Y-53513778D02*
X97430835Y-53425362D01*
X128785326Y-61593457D02*
X127818556Y-62833273D01*
X112149690Y-142935141D02*
X111908377Y-144113795D01*
X122627671Y-55703607D02*
X122966450Y-56860374D01*
X134820535Y-68468981D02*
X135846458Y-69185737D01*
X115947625Y-142593488D02*
X116528928Y-142767621D01*
X105202877Y-144896268D02*
X104783844Y-143706772D01*
X123358439Y-140349051D02*
X123728553Y-140231125D01*
X126484532Y-140130725D02*
X125682541Y-140183109D01*
X147702536Y-119097474D02*
X148215099Y-119516879D01*
X102640146Y-59836232D02*
X103477525Y-59925550D01*
X68280674Y-126984596D02*
X69749344Y-126952235D01*
X155066004Y-88286236D02*
X155580014Y-89058852D01*
X64788258Y-92793330D02*
X66226146Y-93419662D01*
X60690905Y-100090286D02*
X60412858Y-100372313D01*
X149246386Y-120395684D02*
X151422894Y-122636738D01*
X73746284Y-132825584D02*
X74443133Y-131531835D01*
X67348541Y-96118673D02*
X67259653Y-95242952D01*
X81948460Y-134513177D02*
X81539693Y-134860374D01*
X68561979Y-106477257D02*
X68280241Y-105221866D01*
X151036699Y-124365353D02*
X151087397Y-125110515D01*
X127818556Y-62833273D02*
X127525389Y-63258515D01*
X84565041Y-68273747D02*
X83910320Y-68839120D01*
X68651249Y-121681719D02*
X67852774Y-122480273D01*
X70663059Y-86432741D02*
X70545564Y-86889967D01*
X141930156Y-125682651D02*
X141272455Y-126425731D01*
X149277598Y-82853614D02*
X148043598Y-83926804D01*
X120628389Y-53427479D02*
X121310578Y-53514932D01*
X122155951Y-148729316D02*
X123048659Y-148120408D01*
X152441682Y-124388877D02*
X152362860Y-125719939D01*
X136901663Y-133377039D02*
X136096612Y-132896623D01*
X74012820Y-133906624D02*
X73892255Y-134946719D01*
X155842933Y-113501880D02*
X155758042Y-114070007D01*
X143062635Y-136468112D02*
X143547685Y-136127211D01*
X82209009Y-133538278D02*
X82489984Y-133420293D01*
X75975218Y-131331837D02*
X76863515Y-130104453D01*
X132305101Y-135646057D02*
X132446380Y-136488669D01*
X77224800Y-75284664D02*
X76599073Y-76167078D01*
X73892255Y-134946719D02*
X73990420Y-135373316D01*
X137705091Y-135608325D02*
X137037752Y-135113771D01*
X83432058Y-134903277D02*
X82864689Y-134555812D01*
X142203299Y-73126088D02*
X142883741Y-72034371D01*
X100765113Y-143306206D02*
X100055299Y-144836418D01*
X142695407Y-125469903D02*
X143318384Y-125401472D01*
X132183805Y-143863325D02*
X131827699Y-143680817D01*
X144245380Y-132241963D02*
X144349599Y-132530576D01*
X83897403Y-58859130D02*
X84921157Y-58338394D01*
X112233867Y-60698673D02*
X112523090Y-60830674D01*
X75985231Y-72942877D02*
X76876846Y-74188994D01*
X154436967Y-110391443D02*
X155824761Y-111418771D01*
X132666915Y-136966709D02*
X133168615Y-138090470D01*
X123860327Y-63082481D02*
X123272977Y-62418985D01*
X98736631Y-149127855D02*
X98147936Y-149523416D01*
X67245752Y-124349745D02*
X68309413Y-122961429D01*
X138029974Y-69305194D02*
X139529029Y-68237546D01*
X126155438Y-63919148D02*
X125133405Y-63662168D01*
X147771048Y-117670752D02*
X147518521Y-118332439D01*
X74565440Y-67945279D02*
X75090149Y-67339949D01*
X147473843Y-120531742D02*
X147775831Y-120926995D01*
X124086040Y-59703807D02*
X124144395Y-61177756D01*
X75869548Y-136818961D02*
X76845195Y-136929125D01*
X66123638Y-79924149D02*
X65596078Y-78803349D01*
X154646728Y-111971179D02*
X155039028Y-112266019D01*
X80293661Y-68216793D02*
X80085895Y-68069710D01*
X144960219Y-125978966D02*
X145978362Y-126403604D01*
X124059740Y-57545610D02*
X124072796Y-58708069D01*
X157184431Y-102337186D02*
X156510327Y-103110760D01*
X156570007Y-100313248D02*
X157184942Y-101078470D01*
X150207876Y-122344249D02*
X148785743Y-120906545D01*
X124175846Y-145447786D02*
X123980441Y-147544939D01*
X74825594Y-69889833D02*
X74406192Y-68795069D01*
X117423560Y-143411116D02*
X116823139Y-141803207D01*
X158548199Y-101648106D02*
X158544030Y-102255731D01*
X105037290Y-60455323D02*
X104184290Y-60550641D01*
X78891897Y-66721331D02*
X80980595Y-67991887D01*
X66565728Y-115936489D02*
X70302413Y-115911553D01*
X143689199Y-134584020D02*
X143522519Y-135140699D01*
X114322520Y-143437774D02*
X113526634Y-143638676D01*
X116528928Y-142767621D02*
X116612799Y-143022512D01*
X135164798Y-62486970D02*
X134975733Y-63526344D01*
X154329872Y-87324753D02*
X153754485Y-87247585D01*
X147424412Y-87342083D02*
X148170121Y-88072999D01*
X122854268Y-144233917D02*
X122842449Y-146306038D01*
X142359313Y-71933768D02*
X141021512Y-73617108D01*
X118991686Y-54577540D02*
X119633307Y-53883465D01*
X141821338Y-74777800D02*
X141719874Y-75064291D01*
X146132624Y-119528734D02*
X146613411Y-120083913D01*
X135079960Y-142190955D02*
X135016672Y-143110968D01*
X105315904Y-57557873D02*
X105522722Y-56481128D01*
X93648237Y-139386586D02*
X91434444Y-138445711D01*
X105919824Y-148016944D02*
X105570962Y-146653451D01*
X153072210Y-110366508D02*
X151523712Y-109663321D01*
X107509936Y-148736287D02*
X106745769Y-146221088D01*
X130460972Y-60931253D02*
X131866164Y-59837898D01*
X109262670Y-150467325D02*
X110085254Y-150436825D01*
X65692476Y-77756754D02*
X65927717Y-77161554D01*
X116651269Y-60230694D02*
X115620561Y-60464027D01*
X68146511Y-98023620D02*
X68519990Y-96859028D01*
X100647941Y-146341063D02*
X100385861Y-146917529D01*
X122244652Y-55318269D02*
X122627671Y-55703607D01*
X79033839Y-67485641D02*
X78319129Y-67120593D01*
X156563950Y-112046342D02*
X157098388Y-112993977D01*
X146403164Y-117592119D02*
X146062613Y-118698981D01*
X155467017Y-86926222D02*
X156362032Y-87569804D01*
X141927337Y-73538165D02*
X142203299Y-73126088D01*
X64459140Y-87735624D02*
X65975467Y-87767027D01*
X126508003Y-138959334D02*
X126636580Y-138951941D01*
X113852995Y-61098936D02*
X114729876Y-61202158D01*
X68106808Y-96314525D02*
X67908299Y-98130625D01*
X151336509Y-93203581D02*
X149842907Y-93804806D01*
X133644151Y-68460375D02*
X132735246Y-67735640D01*
X85623882Y-67151418D02*
X85474894Y-66380364D01*
X127509399Y-141108349D02*
X127317578Y-140714412D01*
X132446380Y-136488669D02*
X132666915Y-136966709D01*
X60726449Y-104063216D02*
X60020341Y-103682945D01*
X151600623Y-77616338D02*
X151152427Y-76827568D01*
X144349599Y-132530576D02*
X144492245Y-133060243D01*
X78796175Y-135903507D02*
X79972291Y-135149469D01*
X67774631Y-115440316D02*
X65973844Y-115594387D01*
X151272796Y-105129297D02*
X152581470Y-104957898D01*
X90364619Y-140726712D02*
X90778603Y-140154718D01*
X100259136Y-59020671D02*
X100567961Y-59727605D01*
X73826796Y-68168066D02*
X73970568Y-69375737D01*
X74774784Y-77001906D02*
X74986154Y-76946241D01*
X124106186Y-63681249D02*
X124729855Y-63984725D01*
X66798882Y-123772691D02*
X66412559Y-124810697D01*
X145076855Y-134350732D02*
X145058801Y-135125423D01*
X68524120Y-109540863D02*
X68720143Y-108893109D01*
X86262592Y-59915943D02*
X87408758Y-60601439D01*
X91202893Y-64047512D02*
X90896650Y-63596777D01*
X146998469Y-119542547D02*
X146800037Y-118435844D01*
X128981788Y-142280870D02*
X128992843Y-142380316D01*
X64184896Y-98669087D02*
X61781213Y-99482021D01*
X150458426Y-80010159D02*
X149156927Y-81298845D01*
X143565369Y-137004333D02*
X142866793Y-137381634D01*
X84102510Y-133816824D02*
X82245807Y-132538064D01*
X123537112Y-60596735D02*
X123603393Y-59345976D01*
X74970229Y-78100657D02*
X73138472Y-77290567D01*
X148279667Y-87601887D02*
X147679933Y-87000412D01*
X133858053Y-136397910D02*
X134163377Y-137339151D01*
X142276945Y-66266325D02*
X141895448Y-66352758D01*
X75038080Y-66503246D02*
X74278128Y-67109563D01*
X101524356Y-60681822D02*
X100933627Y-59098924D01*
X76105227Y-136268725D02*
X75528882Y-136109484D01*
X85226866Y-66051272D02*
X85045204Y-65767462D01*
X123340558Y-147062960D02*
X123493346Y-145706818D01*
X144132926Y-68002145D02*
X142939357Y-66526926D01*
X71324019Y-118386307D02*
X71461376Y-119247610D01*
X150078405Y-96862533D02*
X149991012Y-95863713D01*
X111785133Y-59137754D02*
X112095614Y-60416958D01*
X142552587Y-136103305D02*
X141991670Y-136268725D01*
X127141710Y-138527044D02*
X126506953Y-138530113D01*
X60937000Y-102350470D02*
X60917484Y-100866988D01*
X122511536Y-54448571D02*
X122227597Y-54379125D01*
X120379123Y-149676890D02*
X119453008Y-149124166D01*
X132267088Y-59672826D02*
X133030720Y-59813332D01*
X85474894Y-66380364D02*
X85226866Y-66051272D01*
X77232346Y-127994083D02*
X77318999Y-128254909D01*
X116305603Y-61297589D02*
X116952676Y-61109882D01*
X109027553Y-52067725D02*
X110886512Y-52067725D01*
X117124577Y-60782506D02*
X117653824Y-59455229D01*
X150630945Y-108083855D02*
X150856546Y-108754962D01*
X123315653Y-56032950D02*
X123176373Y-55452275D01*
X88704759Y-143423691D02*
X87206457Y-144774913D01*
X155658949Y-103503484D02*
X153944831Y-104042305D01*
X134028220Y-58813303D02*
X134823672Y-59375380D01*
X67605745Y-76904020D02*
X68511446Y-76618015D01*
X119453008Y-149124166D02*
X118839245Y-148404287D01*
X101506149Y-144855163D02*
X101361814Y-144972792D01*
X124861979Y-139802106D02*
X125358324Y-139529791D01*
X85004509Y-67857025D02*
X84565041Y-68273747D01*
X107428693Y-53550446D02*
X107162808Y-53979864D01*
X59558861Y-100133489D02*
X60014361Y-99476520D01*
X157051502Y-90712833D02*
X156529617Y-91445947D01*
X66986961Y-97613155D02*
X67366869Y-97264860D01*
X122382321Y-53856171D02*
X123275787Y-54360812D01*
X77176917Y-126859717D02*
X76165168Y-125661838D01*
X84466255Y-144593197D02*
X82861228Y-143719632D01*
X118839245Y-148404287D02*
X117801091Y-147001769D01*
X152189854Y-99093075D02*
X154166396Y-99436696D01*
X62531673Y-86883269D02*
X63839423Y-86519995D01*
X126911111Y-63791627D02*
X126155438Y-63919148D01*
X85643872Y-135174216D02*
X84800270Y-134314254D01*
X71385597Y-84005311D02*
X71456159Y-84545927D01*
X83828455Y-143085837D02*
X85132148Y-144305393D01*
X66617554Y-79414473D02*
X67425088Y-80419367D01*
X148477099Y-86735874D02*
X150953599Y-86534337D01*
X127526986Y-62064512D02*
X129708054Y-59766666D01*
X152274399Y-93344972D02*
X153598645Y-92708170D01*
X101537809Y-58667303D02*
X101925099Y-59393608D01*
X85129433Y-144938875D02*
X84466255Y-144593197D01*
X151380941Y-99007658D02*
X152189854Y-99093075D01*
X85081942Y-136754425D02*
X84548960Y-138239819D01*
X149559322Y-76279640D02*
X148980012Y-76333662D01*
X64679457Y-111316419D02*
X66922874Y-110235481D01*
X83290047Y-61075536D02*
X83490409Y-62832518D01*
X112980599Y-144692202D02*
X112948038Y-145110696D01*
X109477434Y-53516273D02*
X109933479Y-53734266D01*
X65134000Y-97762797D02*
X66357941Y-97639244D01*
X137417224Y-133793750D02*
X136901663Y-133377039D01*
X83598458Y-142436009D02*
X83828455Y-143085837D01*
X134113399Y-134487953D02*
X134224470Y-134173216D01*
X81763746Y-70256608D02*
X82591928Y-70354973D01*
X149191970Y-126853745D02*
X149822492Y-126859355D01*
X141768770Y-127945986D02*
X141709639Y-128126340D01*
X109812686Y-149737909D02*
X109429674Y-149903766D01*
X83910320Y-68839120D02*
X82954643Y-69545208D01*
X95213361Y-57376887D02*
X95286093Y-56602420D01*
X140882499Y-137259325D02*
X140559842Y-137026121D01*
X74491946Y-136916747D02*
X73933623Y-136446744D01*
X104225460Y-142635834D02*
X105504372Y-142707625D01*
X143550259Y-66182756D02*
X143974216Y-66628646D01*
X65413607Y-109403838D02*
X66555155Y-108929113D01*
X87141711Y-58852261D02*
X87757821Y-59353245D01*
X66916565Y-127683525D02*
X66147358Y-126233555D01*
X65858248Y-98356764D02*
X64184896Y-98669087D01*
X66922874Y-110235481D02*
X68200613Y-109722726D01*
X127940358Y-140591765D02*
X128398174Y-141194164D01*
X128845831Y-140842101D02*
X127688074Y-139452373D01*
X74560336Y-132606814D02*
X74012820Y-133906624D01*
X71791002Y-118292420D02*
X71257601Y-116890997D01*
X77413023Y-136838665D02*
X77649199Y-136621177D01*
X63268365Y-110661889D02*
X65413607Y-109403838D01*
X63029893Y-112283250D02*
X63445291Y-112007560D01*
X107162808Y-53979864D02*
X106589421Y-55350913D01*
X140466717Y-127520668D02*
X140287238Y-128336098D01*
X93476286Y-63303821D02*
X92529918Y-63797518D01*
X65801591Y-104835868D02*
X66530990Y-104918534D01*
X81201747Y-134204349D02*
X82209009Y-133538278D01*
X77318999Y-128254909D02*
X77230211Y-128531782D01*
X119380598Y-55290214D02*
X118028495Y-57118402D01*
X118925839Y-146365825D02*
X118792461Y-145997852D01*
X123728553Y-140231125D02*
X123993616Y-140175785D01*
X76043935Y-77498759D02*
X77111347Y-76287583D01*
X62601320Y-115672015D02*
X63235243Y-115806597D01*
X99720404Y-147825725D02*
X99546951Y-147907296D01*
X64732683Y-99092623D02*
X65946538Y-98960930D01*
X120636455Y-54230492D02*
X119380598Y-55290214D01*
X70491409Y-115440655D02*
X70195345Y-115336955D01*
X85122588Y-67183711D02*
X85004509Y-67857025D01*
X67157553Y-93151676D02*
X66444728Y-92841225D01*
X144311964Y-125696514D02*
X144960219Y-125978966D01*
X69347492Y-76689115D02*
X70950847Y-77053429D01*
X143629002Y-134216647D02*
X143689199Y-134584020D01*
X150661486Y-95434698D02*
X150687452Y-96290378D01*
X132576914Y-58163237D02*
X133136455Y-58347182D01*
X92150221Y-139915698D02*
X89770160Y-142345460D01*
X111452390Y-146716785D02*
X110551293Y-148909069D01*
X134975733Y-63526344D02*
X134504902Y-65361388D01*
X62239721Y-89863165D02*
X62373470Y-88895631D01*
X122755317Y-61385411D02*
X122519073Y-62943397D01*
X60014361Y-99476520D02*
X60712208Y-99110942D01*
X106380738Y-143717065D02*
X106062302Y-142634760D01*
X156129034Y-113328716D02*
X155922627Y-112524274D01*
X141021512Y-73617108D02*
X139981856Y-74859190D01*
X134476373Y-133330120D02*
X133878698Y-133725295D01*
X156103998Y-91848889D02*
X154619952Y-92893008D01*
X84076272Y-69430586D02*
X84596276Y-68960880D01*
X122994113Y-57877319D02*
X122922914Y-59712240D01*
X93946887Y-58724968D02*
X93965183Y-57559257D01*
X128398174Y-141194164D02*
X128953061Y-142094140D01*
X132182348Y-59001925D02*
X131806056Y-59104217D01*
X115390357Y-61259810D02*
X116305603Y-61297589D01*
X143290636Y-67698871D02*
X144178556Y-68586791D01*
X66147358Y-126233555D02*
X65378151Y-124783586D01*
X152763243Y-93880853D02*
X152033193Y-94220221D01*
X62373470Y-88895631D02*
X62837188Y-88342736D01*
X103210994Y-142542446D02*
X104225460Y-142635834D01*
X120911114Y-149640818D02*
X120379123Y-149676890D01*
X124729855Y-63984725D02*
X125625610Y-64492534D01*
X149443136Y-107260662D02*
X149223681Y-109402665D01*
X127685760Y-63831616D02*
X128834309Y-62485273D01*
X74347199Y-134661120D02*
X74407185Y-134330136D01*
X62542539Y-114502026D02*
X62304398Y-113805428D01*
X61866480Y-89755629D02*
X62140966Y-91136623D01*
X82954643Y-69545208D02*
X82288574Y-69737705D01*
X137373878Y-68056118D02*
X138334451Y-67370365D01*
X71640056Y-126523928D02*
X72734046Y-126161507D01*
X77979399Y-74934719D02*
X77887531Y-74695892D01*
X100904550Y-145764498D02*
X100647941Y-146341063D01*
X90545963Y-62065694D02*
X91258018Y-62738534D01*
X151152427Y-76827568D02*
X150488398Y-76392744D01*
X86217774Y-144425046D02*
X87347941Y-143736802D01*
X119903892Y-55452275D02*
X120488244Y-54938611D01*
X66226146Y-93419662D02*
X66881985Y-93664297D01*
X143386575Y-78417253D02*
X144896761Y-77981127D01*
X88687485Y-61845491D02*
X89379585Y-62678786D01*
X67247899Y-105750095D02*
X64606299Y-105209958D01*
X68430125Y-81529482D02*
X68982235Y-82265348D01*
X127688074Y-139452373D02*
X127509399Y-139088626D01*
X147505972Y-84959279D02*
X147899249Y-85719940D01*
X151009849Y-97238570D02*
X151705179Y-97628491D01*
X123282159Y-61283987D02*
X123439303Y-60870688D01*
X68968658Y-127683525D02*
X66916565Y-127683525D01*
X78392149Y-136085598D02*
X78796175Y-135903507D01*
X154807304Y-115730969D02*
X155344079Y-115489991D01*
X108243431Y-53635529D02*
X108691667Y-53470367D01*
X99835358Y-58004170D02*
X100259136Y-59020671D01*
X149891854Y-76895202D02*
X150693265Y-77301894D01*
X90896650Y-63596777D02*
X90547823Y-63134487D01*
X134436347Y-137966216D02*
X134722913Y-138731218D01*
X150889698Y-127491151D02*
X149703623Y-127684492D01*
X106464267Y-147825725D02*
X106472395Y-147929944D01*
X122842449Y-146306038D02*
X122552595Y-147554100D01*
X146714372Y-84818358D02*
X146660999Y-84545529D01*
X68156847Y-94488959D02*
X68166754Y-95589662D01*
X85239305Y-59783211D02*
X86262592Y-59915943D01*
X142883741Y-72034371D02*
X143592328Y-70899326D01*
X151759164Y-78153525D02*
X151600623Y-77616338D01*
X73970568Y-69375737D02*
X74336705Y-70311988D01*
X82975153Y-68668502D02*
X83422350Y-68348392D01*
X86013747Y-59068997D02*
X85358016Y-59111318D01*
X75462333Y-72375025D02*
X75985231Y-72942877D01*
X74733338Y-131129343D02*
X75160239Y-130563412D01*
X77427428Y-65974044D02*
X78891897Y-66721331D01*
X110950858Y-149844309D02*
X111333307Y-149049948D01*
X65946538Y-98960930D02*
X66593132Y-98932497D01*
X134312293Y-140171413D02*
X134095837Y-139263082D01*
X80085895Y-68069710D02*
X79033839Y-67485641D01*
X93944676Y-141814736D02*
X93603868Y-140806777D01*
X93136689Y-64114676D02*
X93815047Y-63796895D01*
X150677562Y-125814298D02*
X150302562Y-126189151D01*
X66530349Y-109673165D02*
X64877748Y-110482007D01*
X83228334Y-140391087D02*
X83687131Y-138415771D01*
X123283545Y-148767660D02*
X121908340Y-149426183D01*
X76599073Y-76167078D02*
X76143443Y-76723741D01*
X67425088Y-80419367D02*
X68027781Y-81077695D01*
X84178914Y-141950728D02*
X84246582Y-141431078D01*
X91946629Y-63139057D02*
X92238329Y-63058730D01*
X123980441Y-147544939D02*
X123283545Y-148767660D01*
X60153655Y-101863643D02*
X60199714Y-102479541D01*
X71461376Y-119247610D02*
X71298520Y-119396806D01*
X135648074Y-133446326D02*
X135882567Y-133485217D01*
X149525438Y-93975214D02*
X149345357Y-94556061D01*
X95187723Y-140107475D02*
X94303037Y-139670258D01*
X139981856Y-74859190D02*
X141230013Y-76671458D01*
X95005581Y-147785944D02*
X95542523Y-148412735D01*
X106589421Y-55350913D02*
X105848615Y-57958627D01*
X70877579Y-85661407D02*
X70663059Y-86432741D01*
X61583358Y-100107723D02*
X62681173Y-99637259D01*
X62780662Y-87629073D02*
X62100624Y-88369204D01*
X146089244Y-84742673D02*
X146591683Y-85892556D01*
X130701357Y-59813458D02*
X128785326Y-61593457D01*
X150831590Y-110003086D02*
X151497045Y-110271735D01*
X126767171Y-139119536D02*
X127461840Y-139993255D01*
X147734149Y-84090881D02*
X147426984Y-84179899D01*
X67797851Y-109088090D02*
X67084510Y-109447220D01*
X126636580Y-138951941D02*
X126767171Y-139119536D01*
X83490409Y-62832518D02*
X83791986Y-63977543D01*
X85358016Y-59111318D02*
X84632043Y-59285048D01*
X132735246Y-67735640D02*
X133601676Y-65776489D01*
X147298818Y-119758725D02*
X146998469Y-119542547D01*
X126506953Y-138530113D02*
X125581670Y-138835046D01*
X142368399Y-126263665D02*
X142403068Y-125906197D01*
X157476271Y-103233221D02*
X157854138Y-102554080D01*
X142516087Y-129533965D02*
X143028799Y-130286985D01*
X72035799Y-84071535D02*
X71929845Y-83797590D01*
X94536028Y-58609332D02*
X94548047Y-60607879D01*
X141786468Y-75249807D02*
X142211339Y-75912268D01*
X137006654Y-69179453D02*
X136656233Y-69475534D01*
X141615800Y-65713709D02*
X142246366Y-65475904D01*
X106250608Y-146260306D02*
X106471718Y-147623800D01*
X148396812Y-121409725D02*
X148664340Y-121527370D01*
X121356815Y-148961040D02*
X122155951Y-148729316D01*
X145058801Y-135125423D02*
X144793922Y-135598533D01*
X158548199Y-99734246D02*
X158548199Y-101648106D01*
X150829774Y-106592000D02*
X150719112Y-107194946D01*
X105607955Y-59497225D02*
X105532373Y-60064135D01*
X132768953Y-143634232D02*
X132183805Y-143863325D01*
X69749344Y-126952235D02*
X71640056Y-126523928D01*
X103787411Y-61162454D02*
X106211499Y-60798849D01*
X142068410Y-76981785D02*
X141471561Y-76104537D01*
X72111419Y-119696964D02*
X72102811Y-119411753D01*
X76630673Y-129537539D02*
X76193767Y-130142545D01*
X147491240Y-116762305D02*
X147692332Y-116082670D01*
X95910321Y-55061635D02*
X96333425Y-54896922D01*
X134725808Y-61323802D02*
X134753013Y-60499238D01*
X71425276Y-76660940D02*
X69878571Y-76284728D01*
X108020453Y-53027803D02*
X107428693Y-53550446D01*
X122552595Y-147554100D02*
X121936240Y-148186782D01*
X156818371Y-103608701D02*
X157476271Y-103233221D01*
X80674576Y-68586860D02*
X80293661Y-68216793D01*
X65378151Y-124783586D02*
X66183666Y-123507567D01*
X75251307Y-72110083D02*
X75462333Y-72375025D01*
X118440625Y-146739051D02*
X119363372Y-148018630D01*
X72556901Y-125704160D02*
X69777852Y-126544909D01*
X109801029Y-151124672D02*
X109136514Y-151127725D01*
X91930102Y-64550746D02*
X93136689Y-64114676D01*
X152419378Y-77876458D02*
X152640986Y-78911996D01*
X150687452Y-96290378D02*
X150824070Y-96863888D01*
X63235243Y-115806597D02*
X64958494Y-115921992D01*
X130689132Y-58972456D02*
X131516345Y-58434205D01*
X111206097Y-54346574D02*
X110618353Y-53307524D01*
X96279372Y-149469410D02*
X95567549Y-149250216D01*
X70950847Y-77053429D02*
X72653551Y-77676459D01*
X151068681Y-94808309D02*
X150661486Y-95434698D01*
X150435677Y-105156045D02*
X150788499Y-105125307D01*
X60666368Y-112738593D02*
X61975933Y-111626641D01*
X62099740Y-116084953D02*
X61426036Y-115080787D01*
X73933623Y-136446744D02*
X72722060Y-135303963D01*
X142211339Y-75912268D02*
X142517286Y-76307620D01*
X96333425Y-54896922D02*
X97048996Y-54826636D01*
X63245506Y-116592317D02*
X62099740Y-116084953D01*
X83926918Y-61223696D02*
X83971038Y-60779568D01*
X93286487Y-62587107D02*
X93616175Y-62412020D01*
X95282427Y-146988407D02*
X95217586Y-146510215D01*
X127525389Y-63258515D02*
X126911111Y-63791627D01*
X151140106Y-75440754D02*
X152002430Y-77044789D01*
X123993616Y-140175785D02*
X124861979Y-139802106D01*
X149824310Y-98174713D02*
X150336110Y-98770037D01*
X148512043Y-88100305D02*
X149115687Y-88007184D01*
X146228179Y-125812743D02*
X144627053Y-125154694D01*
X81901212Y-68687120D02*
X82117149Y-68924510D01*
X60712208Y-99110942D02*
X62089854Y-98556328D01*
X66469083Y-77762918D02*
X66256100Y-78378630D01*
X119615521Y-55823158D02*
X119903892Y-55452275D01*
X139695983Y-136824906D02*
X138435575Y-136121167D01*
X135174254Y-134464285D02*
X134526149Y-134929289D01*
X64958494Y-115921992D02*
X66565728Y-115936489D01*
X63070164Y-115212101D02*
X62822032Y-115009182D01*
X95542523Y-148412735D02*
X96244481Y-148732690D01*
X83742069Y-134125582D02*
X84321347Y-134604881D01*
X59488199Y-101574191D02*
X59491541Y-100961500D01*
X125108824Y-140426518D02*
X124014267Y-140948476D01*
X151306795Y-123644737D02*
X150207876Y-122344249D01*
X133943893Y-60795120D02*
X134031352Y-62570615D01*
X128953061Y-142094140D02*
X128981788Y-142280870D01*
X151215288Y-127270775D02*
X150889698Y-127491151D01*
X71539398Y-120088925D02*
X71889494Y-119973787D01*
X99115267Y-148815994D02*
X98736631Y-149127855D01*
X112307161Y-145338542D02*
X112429967Y-143871846D01*
X152127805Y-79817867D02*
X150836923Y-81284847D01*
X150693265Y-77301894D02*
X150953599Y-77658225D01*
X150639013Y-116043826D02*
X153606481Y-116006797D01*
X153754485Y-87247585D02*
X152456293Y-87155367D01*
X111173362Y-55630492D02*
X111495699Y-57232455D01*
X133607736Y-134947925D02*
X133964861Y-134812808D01*
X134281128Y-65931041D02*
X134054841Y-66396805D01*
X100933627Y-59098924D02*
X100381176Y-57755025D01*
X77891349Y-128589703D02*
X77979399Y-128324330D01*
X123042677Y-147811127D02*
X123023417Y-147559536D01*
X153944831Y-104042305D02*
X152026156Y-104402136D01*
X106118417Y-54361613D02*
X106433924Y-53579898D01*
X110085254Y-150436825D02*
X110950858Y-149844309D01*
X74407185Y-134330136D02*
X74833926Y-133303249D01*
X105848615Y-57958627D02*
X105607955Y-59497225D01*
X77296792Y-129538176D02*
X77891349Y-128589703D01*
X144793922Y-135598533D02*
X144215695Y-136356044D01*
X150856546Y-108754962D02*
X151264925Y-108862125D01*
X132588975Y-134886719D02*
X132305101Y-135646057D01*
X137498591Y-68783099D02*
X137006654Y-69179453D01*
X62089854Y-98556328D02*
X65134000Y-97762797D01*
X143088407Y-124400606D02*
X141930156Y-125682651D01*
X68697884Y-108002677D02*
X68651128Y-107366237D01*
X112716173Y-146350019D02*
X112094621Y-148655327D01*
X143547685Y-136127211D02*
X143885869Y-135640838D01*
X95677676Y-140624668D02*
X95187723Y-140107475D01*
X140070667Y-136929125D02*
X139695983Y-136824906D01*
X91174390Y-64480065D02*
X91550485Y-64615325D01*
X67379586Y-96619036D02*
X67348541Y-96118673D01*
X147582443Y-83456796D02*
X148167319Y-82977215D01*
X75540117Y-131034677D02*
X74560336Y-132606814D01*
X157227399Y-101703596D02*
X157184431Y-102337186D01*
X134304210Y-68972549D02*
X133644151Y-68460375D01*
X116348521Y-59114149D02*
X116815230Y-57956464D01*
X135596197Y-70471762D02*
X135952342Y-70558925D01*
X122719796Y-142036232D02*
X122771059Y-142823624D01*
X142517286Y-76307620D02*
X143302822Y-77268416D01*
X132486371Y-68163652D02*
X133364466Y-69017850D01*
X125826932Y-139267219D02*
X126508003Y-138959334D01*
X123698411Y-54795290D02*
X123996908Y-55955756D01*
X149792995Y-87339440D02*
X148575652Y-87605518D01*
X77873639Y-127959013D02*
X77176917Y-126859717D01*
X99575046Y-148103414D02*
X99561985Y-148270159D01*
X140670068Y-129162569D02*
X141052364Y-129670741D01*
X144392242Y-67081356D02*
X144930796Y-67765836D01*
X65564407Y-93889823D02*
X63857987Y-92994252D01*
X119686493Y-147618554D02*
X119391653Y-147226254D01*
X105522722Y-56481128D02*
X106118417Y-54361613D01*
X75633402Y-126997680D02*
X75075351Y-126528058D01*
X66997834Y-122432957D02*
X69236319Y-120219719D01*
X83089704Y-141400959D02*
X83228334Y-140391087D01*
X84378903Y-60150525D02*
X84770715Y-59922322D01*
X84624037Y-64650042D02*
X84070499Y-62426888D01*
X127461840Y-139993255D02*
X127940358Y-140591765D01*
X155521867Y-112696333D02*
X155842933Y-113501880D01*
X142403068Y-125906197D02*
X142695407Y-125469903D01*
X68126820Y-107659830D02*
X68153520Y-108436873D01*
X152143296Y-123561569D02*
X152441682Y-124388877D01*
X133601676Y-65776489D02*
X134271352Y-63840212D01*
X158544030Y-102255731D02*
X158478591Y-103090526D01*
X144923854Y-69238125D02*
X144692802Y-69901082D01*
X134031352Y-62570615D02*
X133284780Y-64971023D01*
X70537273Y-119296911D02*
X70575458Y-118618180D01*
X106471718Y-147623800D02*
X106464267Y-147825725D01*
X130467162Y-142498218D02*
X128845831Y-140842101D01*
X118986367Y-146558785D02*
X118925839Y-146365825D01*
X144335278Y-68810366D02*
X144132926Y-68002145D01*
X62304398Y-113805428D02*
X62243091Y-113365657D01*
X149727388Y-81627762D02*
X151331057Y-79660517D01*
X75934636Y-75724000D02*
X76644510Y-74780375D01*
X71979732Y-84404103D02*
X72035799Y-84071535D01*
X142939357Y-66526926D02*
X142276945Y-66266325D01*
X83422350Y-68348392D02*
X84054439Y-67820501D01*
X148656811Y-76896535D02*
X149891854Y-76895202D01*
X73537777Y-70134690D02*
X72666336Y-68224554D01*
X99772599Y-57819802D02*
X99835358Y-58004170D01*
X133065236Y-144147819D02*
X133651217Y-143940819D01*
X61426036Y-115080787D02*
X61166210Y-114348123D01*
X126327484Y-63258810D02*
X126612358Y-63267506D01*
X151089116Y-78985706D02*
X150458426Y-80010159D01*
X133900717Y-142380554D02*
X132768953Y-143634232D01*
X111651145Y-58297821D02*
X111785133Y-59137754D01*
X122922914Y-59712240D02*
X122755317Y-61385411D01*
X63445291Y-112007560D02*
X64679457Y-111316419D01*
X127672242Y-141406480D02*
X127509399Y-141108349D01*
X149540151Y-106409861D02*
X149443136Y-107260662D01*
X148818002Y-75668742D02*
X151140106Y-75440754D01*
X157887799Y-101777575D02*
X157851414Y-101045235D01*
X100956846Y-144133494D02*
X101493789Y-143049633D01*
X111657069Y-53712896D02*
X112308494Y-55531236D01*
X151761036Y-126362725D02*
X151559898Y-126323883D01*
X84320203Y-65507447D02*
X84846777Y-66667221D01*
X127509399Y-64218051D02*
X127685760Y-63831616D01*
X149703623Y-127684492D02*
X147134361Y-127395305D01*
X61001145Y-89092962D02*
X61402709Y-88078166D01*
X138334451Y-67370365D02*
X139649765Y-66605212D01*
X80980595Y-67991887D02*
X81901212Y-68687120D01*
X147661291Y-115209610D02*
X146727334Y-116933979D01*
X122519073Y-62943397D02*
X124106186Y-63681249D01*
X77499500Y-67364940D02*
X78951811Y-68129078D01*
X68153520Y-108436873D02*
X67797851Y-109088090D01*
X60653854Y-103105258D02*
X61399302Y-103521869D01*
X74041020Y-66600936D02*
X74848772Y-65872197D01*
X140577534Y-66939014D02*
X138942720Y-67842650D01*
X155432796Y-91480725D02*
X156214273Y-90722438D01*
X143974216Y-66628646D02*
X144392242Y-67081356D01*
X121089984Y-54175811D02*
X120636455Y-54230492D01*
X93965183Y-57559257D02*
X94035321Y-55962972D01*
X61257723Y-102879870D02*
X60937000Y-102350470D01*
X63255382Y-91813843D02*
X63641160Y-92100946D01*
X116692364Y-145122575D02*
X116330361Y-144160166D01*
X81539693Y-134860374D02*
X81032151Y-135268257D01*
X70693013Y-82592016D02*
X69419715Y-81577651D01*
X105893683Y-142427868D02*
X105570839Y-142351123D01*
X102992049Y-143321187D02*
X102305420Y-143228104D01*
X150836923Y-81284847D02*
X149277598Y-82853614D01*
X157045092Y-113582595D02*
X156825858Y-114540523D01*
X71929845Y-83797590D02*
X71214391Y-83009284D01*
X93928930Y-59852558D02*
X93946887Y-58724968D01*
X76220825Y-126570649D02*
X76647225Y-127096688D01*
X91434444Y-138445711D02*
X90418507Y-139751168D01*
X117022724Y-59116641D02*
X116788020Y-59992525D01*
X117174991Y-144539288D02*
X118440625Y-146739051D01*
X104605660Y-143529491D02*
X103976825Y-143466803D01*
X124140745Y-143974350D02*
X124175846Y-145447786D01*
X150037812Y-107046025D02*
X150069037Y-106457468D01*
X69812994Y-116659740D02*
X66549246Y-116731816D01*
X109136514Y-151127725D02*
X107088214Y-151127725D01*
X106336117Y-148917965D02*
X106046872Y-148321025D01*
X154913078Y-111487787D02*
X153072210Y-110366508D01*
X151422894Y-122636738D02*
X152143296Y-123561569D01*
X68982235Y-82265348D02*
X69063999Y-82458794D01*
X123048659Y-148120408D02*
X123042677Y-147811127D01*
X146011472Y-84415485D02*
X146089244Y-84742673D01*
X101181922Y-141814670D02*
X100949696Y-142756448D01*
X133030720Y-59813332D02*
X133943893Y-60795120D01*
X70614696Y-88008328D02*
X71325248Y-86293995D01*
X68502805Y-87156149D02*
X67509433Y-87121285D01*
X151691953Y-124856334D02*
X151556148Y-124062666D01*
X144899361Y-76582573D02*
X146709034Y-76031225D01*
X99546951Y-147907296D02*
X99575046Y-148103414D01*
X149388278Y-95344171D02*
X149449775Y-95905818D01*
X103531870Y-60584824D02*
X101524356Y-60681822D01*
X95200754Y-144955736D02*
X95306455Y-143095454D01*
X113157628Y-59827425D02*
X114720113Y-59928067D01*
X116788020Y-59992525D02*
X116651269Y-60230694D01*
X64076929Y-87219815D02*
X62780662Y-87629073D01*
X71074022Y-83703120D02*
X71385597Y-84005311D01*
X74986154Y-76946241D02*
X75363197Y-76472279D01*
X65927717Y-77161554D02*
X66235267Y-76581422D01*
X135016672Y-143110968D02*
X134704601Y-143904233D01*
X147552030Y-76597861D02*
X144708330Y-77390786D01*
X97949165Y-148774592D02*
X98601009Y-148171326D01*
X134098826Y-141742017D02*
X133900717Y-142380554D01*
X97952013Y-54682805D02*
X96531024Y-54464806D01*
X94153639Y-147697671D02*
X94004633Y-145860846D01*
X60929063Y-90330957D02*
X60824859Y-89936068D01*
X122771059Y-142823624D02*
X122854268Y-144233917D01*
X107520514Y-149870263D02*
X108452543Y-150433404D01*
X143028799Y-130286985D02*
X143541641Y-131046550D01*
X121642712Y-54319402D02*
X121089984Y-54175811D01*
X133964861Y-134812808D02*
X134113399Y-134487953D01*
X152631514Y-110831470D02*
X152960799Y-111053616D01*
X98601009Y-148171326D02*
X99099855Y-147584959D01*
X75122651Y-125299890D02*
X76220825Y-126570649D01*
X69943147Y-86649458D02*
X70256422Y-85620942D01*
X68088213Y-94248690D02*
X68156847Y-94488959D01*
X76038514Y-129126512D02*
X76739230Y-128380634D01*
X99891658Y-147708576D02*
X99720404Y-147825725D01*
X61415677Y-104341370D02*
X60726449Y-104063216D01*
X106491333Y-144459174D02*
X106380738Y-143717065D01*
X116242334Y-143441562D02*
X115647357Y-143240168D01*
X67891368Y-105652775D02*
X68062350Y-106778352D01*
X150517090Y-123455678D02*
X151036699Y-124365353D01*
X105570839Y-142351123D02*
X104211005Y-142147628D01*
X134664738Y-61936054D02*
X134725808Y-61323802D01*
X153213511Y-97954793D02*
X155226431Y-98426723D01*
X133560169Y-137555164D02*
X133306935Y-136965936D01*
X75363197Y-76472279D02*
X75934636Y-75724000D01*
X79570884Y-136166665D02*
X77896058Y-136988204D01*
X118251944Y-145211040D02*
X117692209Y-144076571D01*
X133651217Y-143940819D02*
X134210352Y-143390151D01*
X140581203Y-135817229D02*
X138651828Y-134711028D01*
X121936240Y-148186782D02*
X121490481Y-148337568D01*
X147679933Y-87000412D02*
X147337402Y-86363676D01*
X146727334Y-116933979D02*
X146403164Y-117592119D01*
X153598645Y-92708170D02*
X155432796Y-91480725D01*
X122999338Y-139900925D02*
X122795680Y-140033446D01*
X91550485Y-64615325D02*
X91930102Y-64550746D01*
X116330361Y-144160166D02*
X116282599Y-143802249D01*
X150336110Y-98770037D02*
X151380941Y-99007658D01*
X134526149Y-134929289D02*
X134010546Y-135465904D01*
X100381176Y-57755025D02*
X99221151Y-55767371D01*
X100403625Y-56450666D02*
X101301231Y-58116810D01*
X69063999Y-82458794D02*
X69268360Y-82716482D01*
X85830203Y-144523725D02*
X86217774Y-144425046D01*
X103976825Y-143466803D02*
X102992049Y-143321187D01*
X131591615Y-144875853D02*
X130347260Y-144037227D01*
X61975933Y-111626641D02*
X63268365Y-110661889D01*
X113805606Y-142141423D02*
X112525380Y-142468818D01*
X77111347Y-76287583D02*
X77863917Y-75237440D01*
X61835976Y-113141708D02*
X61901494Y-113902301D01*
X67259653Y-95242952D02*
X66826046Y-94510093D01*
X141772292Y-136643098D02*
X143062635Y-136468112D01*
X156529617Y-91445947D02*
X156103998Y-91848889D01*
X134054841Y-66396805D02*
X133836088Y-67116651D01*
X146660999Y-84545529D02*
X146779857Y-84292413D01*
X60020341Y-103682945D02*
X59559595Y-103016563D01*
X133959363Y-140727552D02*
X134098826Y-141742017D01*
X143001134Y-78482286D02*
X143386575Y-78417253D01*
X71298520Y-119396806D02*
X70960185Y-119619534D01*
X144111128Y-69804760D02*
X144335278Y-68810366D01*
X73572696Y-125203975D02*
X72556901Y-125704160D01*
X74481541Y-71885506D02*
X73537777Y-70134690D01*
X141021629Y-74798990D02*
X141110513Y-74267622D01*
X108452543Y-150433404D02*
X109262670Y-150467325D01*
X84070499Y-62426888D02*
X83926918Y-61223696D01*
X157184942Y-101078470D02*
X157227399Y-101703596D01*
X99561985Y-148270159D02*
X99115267Y-148815994D01*
X72666336Y-68224554D02*
X73322062Y-67390934D01*
X74013359Y-67595913D02*
X73826796Y-68168066D01*
X134753013Y-60499238D02*
X134420243Y-59862879D01*
X145117692Y-68577674D02*
X144923854Y-69238125D01*
X73322062Y-67390934D02*
X74041020Y-66600936D01*
X141230013Y-76671458D02*
X141755914Y-77375013D01*
X84647653Y-139886741D02*
X84931657Y-139052265D01*
X87757821Y-59353245D02*
X89329787Y-60813271D01*
X84054439Y-67820501D02*
X84286510Y-67046992D01*
X157851414Y-101045235D02*
X157376214Y-100161944D01*
X135022115Y-133631832D02*
X135648074Y-133446326D01*
X114663376Y-142024481D02*
X113805606Y-142141423D01*
X111761077Y-147916985D02*
X112307161Y-145338542D01*
X123996908Y-55955756D02*
X124059740Y-57545610D01*
X95245719Y-60539970D02*
X95191849Y-59474863D01*
X141621662Y-136213961D02*
X140581203Y-135817229D01*
X61699736Y-87584389D02*
X62531673Y-86883269D01*
X135285357Y-61692863D02*
X135164798Y-62486970D01*
X63827456Y-104431552D02*
X65801591Y-104835868D01*
X144930796Y-67765836D02*
X145117692Y-68577674D01*
X152960799Y-111053616D02*
X153418326Y-111371987D01*
X82623399Y-60856756D02*
X82752132Y-60114356D01*
X152033193Y-94220221D02*
X151068681Y-94808309D01*
X148167319Y-82977215D02*
X149727388Y-81627762D01*
X87230030Y-143109729D02*
X86283305Y-143765359D01*
X111908377Y-144113795D02*
X111807703Y-144851081D01*
X75719757Y-65187080D02*
X77427428Y-65974044D01*
X65973844Y-115594387D02*
X63921012Y-115493392D01*
X66824686Y-76755980D02*
X66748367Y-77151529D01*
X134146308Y-67920348D02*
X134820535Y-68468981D01*
X60231882Y-100975355D02*
X60153655Y-101863643D01*
X66936290Y-75804475D02*
X67307235Y-75632627D01*
X143713829Y-72285373D02*
X143207616Y-72906236D01*
X95191849Y-59474863D02*
X95213361Y-57376887D01*
X83654317Y-141865958D02*
X83598458Y-142436009D01*
X104184290Y-60550641D02*
X103531870Y-60584824D01*
X61781213Y-99482021D02*
X60690905Y-100090286D01*
X110543191Y-54235819D02*
X111173362Y-55630492D01*
X147134361Y-127395305D02*
X145320260Y-126846972D01*
X63314291Y-87957784D02*
X64459140Y-87735624D01*
X85325038Y-68029125D02*
X85623882Y-67151418D01*
X77867441Y-136336821D02*
X78392149Y-136085598D01*
X101493789Y-143049633D02*
X102131132Y-142382694D01*
X150769573Y-87861794D02*
X152575986Y-87788779D01*
X133675515Y-144685516D02*
X132623828Y-145076911D01*
X106062302Y-142634760D02*
X105893683Y-142427868D01*
X93072160Y-140444719D02*
X92150221Y-139915698D01*
X153149586Y-105404810D02*
X151902924Y-105548363D01*
X76644510Y-74780375D02*
X75526864Y-73412600D01*
X63281472Y-111471159D02*
X62786784Y-111831653D01*
X149560538Y-122321763D02*
X150078826Y-122900669D01*
X133136455Y-58347182D02*
X134028220Y-58813303D01*
X69549686Y-120836964D02*
X68651249Y-121681719D01*
X82288574Y-69737705D02*
X81693620Y-69479756D01*
X141110513Y-74267622D02*
X141295249Y-74189037D01*
X84005549Y-135161123D02*
X83432058Y-134903277D01*
X153606481Y-116006797D02*
X154807304Y-115730969D01*
X76465294Y-137508398D02*
X75984442Y-137585342D01*
X143370756Y-77929751D02*
X142616303Y-77564665D01*
X142239295Y-126566830D02*
X142368399Y-126263665D01*
X142164623Y-127308306D02*
X141768770Y-127945986D01*
X95029274Y-140827530D02*
X95020093Y-141137242D01*
X143359294Y-70150708D02*
X142359313Y-71933768D01*
X143318384Y-125401472D02*
X144311964Y-125696514D01*
X150033183Y-104764253D02*
X149812202Y-104876582D01*
X89329787Y-60813271D02*
X90092029Y-61592488D01*
X151264925Y-108862125D02*
X151611261Y-108910940D01*
X109933479Y-53734266D02*
X110543191Y-54235819D01*
X67062892Y-79072317D02*
X66900776Y-78746427D01*
X77501892Y-66753687D02*
X76110549Y-66384855D01*
X76647225Y-127096688D02*
X77232346Y-127994083D01*
X151611261Y-108910940D02*
X152563404Y-109278656D01*
X91510290Y-139366727D02*
X91737874Y-139247784D01*
X152026156Y-104402136D02*
X151212806Y-104511462D01*
X155782259Y-89625979D02*
X155621833Y-90425583D01*
X117653824Y-59455229D02*
X118854771Y-57073957D01*
X84548960Y-138239819D02*
X84012692Y-140159899D01*
X146954466Y-86573625D02*
X147424412Y-87342083D01*
X98210899Y-53722701D02*
X98838590Y-54358737D01*
X135882567Y-133485217D02*
X136674273Y-133917152D01*
X142010582Y-131018716D02*
X143196270Y-133118666D01*
X147612875Y-119910375D02*
X147298818Y-119758725D01*
X81354531Y-69201597D02*
X80674576Y-68586860D01*
X112094621Y-148655327D02*
X111609057Y-150054575D01*
X149842907Y-93804806D02*
X149525438Y-93975214D01*
X108010599Y-149459725D02*
X107509936Y-148736287D01*
X68791779Y-115336779D02*
X67774631Y-115440316D01*
X142866793Y-137381634D02*
X141329564Y-137527739D01*
X120116807Y-148101393D02*
X119686493Y-147618554D01*
X95567549Y-149250216D02*
X94617072Y-148702682D01*
X74546834Y-78420027D02*
X74851654Y-78483725D01*
X143540198Y-132634135D02*
X142387759Y-130626088D01*
X134504902Y-65361388D02*
X134281128Y-65931041D01*
X68016162Y-126552738D02*
X67196412Y-125551699D01*
X74651558Y-71010871D02*
X75251307Y-72110083D01*
X155951645Y-114807551D02*
X156099223Y-114279838D01*
X106428550Y-58662137D02*
X106558137Y-57562469D01*
X107088214Y-151127725D02*
X106689374Y-149889475D01*
X155922627Y-112524274D02*
X155696054Y-112199629D01*
X104211005Y-142147628D02*
X103341502Y-142045942D01*
X148034656Y-121267923D02*
X148396812Y-121409725D01*
X97094269Y-149669873D02*
X96279372Y-149469410D01*
X143592328Y-70899326D02*
X144111128Y-69804760D01*
X83791986Y-63977543D02*
X84320203Y-65507447D01*
X76143443Y-76723741D02*
X74970229Y-78100657D01*
X94799369Y-55836573D02*
X94656615Y-56755011D01*
X149894472Y-94775062D02*
X151110545Y-93855712D01*
X143193899Y-126010419D02*
X142452589Y-126929522D01*
X127509399Y-139088626D02*
X127467788Y-138825926D01*
X112792627Y-57592746D02*
X113157628Y-59827425D01*
X143207616Y-72906236D02*
X142437195Y-73883227D01*
X115491380Y-59954781D02*
X116214170Y-59758769D01*
X131866164Y-59837898D02*
X132267088Y-59672826D01*
X156281365Y-104599147D02*
X153149586Y-105404810D01*
X123502522Y-143857764D02*
X123364553Y-142227593D01*
X140848562Y-127977775D02*
X141054446Y-127505631D01*
X125787368Y-64634321D02*
X126117197Y-64759527D01*
X154166396Y-99436696D02*
X155814014Y-99944783D01*
X143885869Y-135640838D02*
X144047081Y-134330867D01*
X141719874Y-75064291D02*
X141786468Y-75249807D01*
X84208483Y-137101209D02*
X84507791Y-136202108D01*
X147917042Y-126335928D02*
X146228179Y-125812743D01*
X150953599Y-77658225D02*
X151129552Y-78094634D01*
X147007912Y-120259330D02*
X147473843Y-120531742D01*
X82245807Y-132538064D02*
X81350853Y-133376461D01*
X111807703Y-144851081D02*
X111452390Y-146716785D01*
X83971038Y-60779568D02*
X84378903Y-60150525D01*
X120780944Y-149038953D02*
X121356815Y-148961040D01*
X147775831Y-120926995D02*
X148034656Y-121267923D01*
X68413498Y-82442590D02*
X67425372Y-81438288D01*
X144398333Y-70799473D02*
X144057163Y-71675702D01*
X97430835Y-53425362D02*
X98210899Y-53722701D01*
X156089168Y-88647566D02*
X155774202Y-87999509D01*
X71234435Y-84932131D02*
X70877579Y-85661407D01*
X83658062Y-59931979D02*
X83290047Y-61075536D01*
X151556148Y-124062666D02*
X151306795Y-123644737D01*
X78319129Y-67120593D02*
X77501892Y-66753687D01*
X147426984Y-84179899D02*
X147505972Y-84959279D01*
X61166210Y-114348123D02*
X60666368Y-112738593D01*
X108691667Y-53470367D02*
X109477434Y-53516273D01*
X67908299Y-98130625D02*
X65858248Y-98356764D01*
X63921012Y-115493392D02*
X63070164Y-115212101D01*
X67307235Y-75632627D02*
X67833198Y-75556554D01*
X156099223Y-114279838D02*
X156129034Y-113328716D01*
X87408758Y-60601439D02*
X88687485Y-61845491D01*
X150788499Y-105125307D02*
X151272796Y-105129297D01*
X154906879Y-104366014D02*
X156319349Y-103836633D01*
X151580022Y-125619775D02*
X151691953Y-124856334D01*
X134210352Y-143390151D02*
X134545297Y-142139691D01*
X67348541Y-107306110D02*
X67247899Y-105750095D01*
X123216799Y-61965212D02*
X123282159Y-61283987D01*
X128992843Y-142380316D02*
X129428404Y-142690911D01*
X132596134Y-66352821D02*
X132296711Y-67165502D01*
X103341502Y-142045942D02*
X101181922Y-141814670D01*
X119391653Y-147226254D02*
X118986367Y-146558785D01*
X80756643Y-69549959D02*
X81763746Y-70256608D01*
X142944234Y-65626031D02*
X143550259Y-66182756D01*
X67425372Y-81438288D02*
X66123638Y-79924149D01*
X125114459Y-62752192D02*
X125775351Y-63044001D01*
X70382516Y-84999185D02*
X69976298Y-84088806D01*
X126612358Y-63267506D02*
X127526986Y-62064512D01*
X116823139Y-141803207D02*
X114663376Y-142024481D01*
X82766296Y-133494419D02*
X83742069Y-134125582D01*
X134281040Y-144281747D02*
X133675515Y-144685516D01*
X89379585Y-62678786D02*
X90057044Y-63483342D01*
X106211499Y-60798849D02*
X106428550Y-58662137D01*
X89326558Y-141983156D02*
X90364619Y-140726712D01*
X153418326Y-111371987D02*
X153786299Y-111505365D01*
X91737874Y-139247784D02*
X92008718Y-139296923D01*
X135297506Y-69608989D02*
X134304210Y-68972549D01*
X68662867Y-126689351D02*
X68016162Y-126552738D01*
X67079637Y-87821837D02*
X70614696Y-88008328D01*
X156377678Y-89651563D02*
X156089168Y-88647566D01*
X85980951Y-143852824D02*
X85277095Y-143688343D01*
X71257601Y-116890997D02*
X70708046Y-115747238D01*
X146916964Y-77305971D02*
X148656811Y-76896535D01*
X106558137Y-57562469D02*
X106885786Y-55808413D01*
X102567879Y-142418734D02*
X103210994Y-142542446D01*
X66412559Y-124810697D02*
X66625990Y-125776494D01*
X100622900Y-144907971D02*
X100956846Y-144133494D01*
X150302562Y-126189151D02*
X149910765Y-126482991D01*
X125775351Y-63044001D02*
X126327484Y-63258810D01*
X95501166Y-141519354D02*
X95621425Y-141022243D01*
X67082799Y-124759849D02*
X67245752Y-124349745D01*
X145978362Y-126403604D02*
X147952941Y-126811785D01*
X155128910Y-87497766D02*
X154329872Y-87324753D01*
X129799263Y-142863805D02*
X130610709Y-143288547D01*
X67109623Y-86492870D02*
X69943147Y-86649458D01*
X138942720Y-67842650D02*
X137498591Y-68783099D01*
X118028495Y-57118402D02*
X117022724Y-59116641D01*
X111495699Y-57232455D02*
X111651145Y-58297821D01*
X141813222Y-128382747D02*
X142516087Y-129533965D01*
X149156927Y-81298845D02*
X148229449Y-82083167D01*
X65212241Y-92352125D02*
X63940193Y-91547592D01*
X82279725Y-68975465D02*
X82975153Y-68668502D01*
X94159199Y-62954920D02*
X93476286Y-63303821D01*
X84309074Y-142666573D02*
X84178914Y-141950728D01*
X99258394Y-54846971D02*
X100403625Y-56450666D01*
X90547823Y-63134487D02*
X89235410Y-61679004D01*
X90092029Y-61592488D02*
X90545963Y-62065694D01*
X151902924Y-105548363D02*
X151462247Y-105597784D01*
X141490731Y-126931657D02*
X141928896Y-126692925D01*
X115124846Y-142590275D02*
X115947625Y-142593488D01*
X150824070Y-96863888D02*
X151009849Y-97238570D01*
X76110549Y-66384855D02*
X75038080Y-66503246D01*
X153677427Y-91991067D02*
X151336509Y-93203581D01*
X141709639Y-128126340D02*
X141813222Y-128382747D01*
X149910765Y-126482991D02*
X148872188Y-126546893D01*
X66357941Y-97639244D02*
X66986961Y-97613155D01*
X66299418Y-104235751D02*
X64981258Y-104104991D01*
X105570962Y-146653451D02*
X105392115Y-145761975D01*
X135846458Y-69185737D02*
X137373878Y-68056118D01*
X97048996Y-54826636D02*
X97614364Y-54947552D01*
X68200613Y-109722726D02*
X68524120Y-109540863D01*
X97659197Y-148307053D02*
X96872369Y-148304955D01*
X83950790Y-137693621D02*
X84208483Y-137101209D01*
X110689967Y-151064978D02*
X109801029Y-151124672D01*
X77979399Y-128324330D02*
X77873639Y-127959013D01*
X61402709Y-88078166D02*
X61699736Y-87584389D01*
X68166754Y-95589662D02*
X68106808Y-96314525D01*
X152934799Y-98615087D02*
X150128099Y-98083825D01*
X141074779Y-128854501D02*
X140848562Y-127977775D01*
X156094735Y-115882741D02*
X154751273Y-116574484D01*
X155344079Y-115489991D02*
X155951645Y-114807551D01*
X151705179Y-97628491D02*
X152598663Y-97843170D01*
X155209063Y-90907767D02*
X154853014Y-91219647D01*
X62579437Y-112659962D02*
X63029893Y-112283250D01*
X146183121Y-84074555D02*
X146011472Y-84415485D01*
X70920080Y-127507010D02*
X68968658Y-127683525D01*
X95020093Y-141137242D02*
X94782271Y-142268193D01*
X93864580Y-61397552D02*
X93928930Y-59852558D01*
X128771834Y-142608707D02*
X127672242Y-141406480D01*
X136674273Y-133917152D02*
X137133974Y-134256994D01*
X90778603Y-140154718D02*
X91510290Y-139366727D01*
X100949696Y-142756448D02*
X100765113Y-143306206D01*
X152002430Y-77044789D02*
X152419378Y-77876458D01*
X68720143Y-108893109D02*
X68697884Y-108002677D01*
X150969213Y-106077259D02*
X150829774Y-106592000D01*
X75236683Y-124836941D02*
X74928130Y-124711725D01*
X89770160Y-142345460D02*
X88704759Y-143423691D01*
X119633307Y-53883465D02*
X120628389Y-53427479D01*
X157854138Y-102554080D02*
X157887799Y-101777575D01*
X149822492Y-126859355D02*
X150718129Y-126901844D01*
X66593132Y-98932497D02*
X67545480Y-98670382D01*
X92529918Y-63797518D02*
X91867528Y-64129201D01*
X66899157Y-104263786D02*
X66299418Y-104235751D01*
X106689374Y-149889475D02*
X106336117Y-148917965D01*
X141471561Y-76104537D02*
X141021629Y-74798990D01*
X136285170Y-70459998D02*
X137392158Y-69791994D01*
X114910744Y-143337889D02*
X114322520Y-143437774D01*
X86942400Y-59494494D02*
X86013747Y-59068997D01*
X149947526Y-109027225D02*
X150037812Y-107046025D01*
X68519990Y-96859028D02*
X68660075Y-96040926D01*
X146062613Y-118698981D02*
X146132624Y-119528734D01*
X141895448Y-66352758D02*
X140577534Y-66939014D01*
X85808483Y-136213607D02*
X85643872Y-135174216D01*
X144692802Y-69901082D02*
X144398333Y-70799473D01*
X112525380Y-142468818D02*
X112260607Y-142638947D01*
X130610709Y-143288547D02*
X131171082Y-143733750D01*
X136656233Y-69475534D02*
X136016807Y-69762813D01*
X131516345Y-58434205D02*
X132576914Y-58163237D01*
X69777852Y-126544909D02*
X68662867Y-126689351D01*
X67196412Y-125551699D02*
X67082799Y-124759849D01*
X123023417Y-147559536D02*
X123211413Y-147333754D01*
X113526634Y-143638676D02*
X113034696Y-144117930D01*
X69236319Y-120219719D02*
X70225985Y-119510839D01*
X155824761Y-111418771D02*
X156563950Y-112046342D01*
X62100624Y-88369204D02*
X61944165Y-88878352D01*
X119901996Y-148623426D02*
X120780944Y-149038953D01*
X67874118Y-94106013D02*
X68088213Y-94248690D01*
X74851654Y-78483725D02*
X75118443Y-78352689D01*
X134704601Y-143904233D02*
X134281040Y-144281747D01*
X155039028Y-112266019D02*
X155521867Y-112696333D01*
X116952676Y-61109882D02*
X117124577Y-60782506D01*
X62453363Y-115588657D02*
X62601320Y-115672015D01*
X101925099Y-59393608D02*
X102640146Y-59836232D01*
X97968834Y-148145688D02*
X97659197Y-148307053D01*
X71456159Y-84545927D02*
X71234435Y-84932131D01*
X93815047Y-63796895D02*
X95430142Y-62978464D01*
X124144395Y-61177756D02*
X124258370Y-62063761D01*
X127317578Y-140714412D02*
X126856390Y-140312371D01*
X66549246Y-116731816D02*
X65183322Y-116744573D01*
X67461890Y-105131180D02*
X67891368Y-105652775D01*
X157482758Y-104112927D02*
X156281365Y-104599147D01*
X106472395Y-147929944D02*
X106798693Y-148633683D01*
X152598663Y-97843170D02*
X153213511Y-97954793D01*
X94548047Y-60607879D02*
X94575370Y-61629586D01*
X92725650Y-62774355D02*
X93286487Y-62587107D01*
X61944165Y-88878352D02*
X61866480Y-89755629D01*
X113034696Y-144117930D02*
X112980599Y-144692202D01*
X134163377Y-137339151D02*
X134436347Y-137966216D01*
X105532373Y-60064135D02*
X105037290Y-60455323D01*
X64877748Y-110482007D02*
X63281472Y-111471159D01*
X120922354Y-148422459D02*
X120116807Y-148101393D01*
X91258018Y-62738534D02*
X91946629Y-63139057D01*
X67374987Y-108071441D02*
X67348541Y-107306110D01*
X151212806Y-104511462D02*
X150033183Y-104764253D01*
X94742120Y-146459936D02*
X94823561Y-147015948D01*
X136016807Y-69762813D02*
X135297506Y-69608989D01*
X89235410Y-61679004D02*
X88433472Y-60865080D01*
X62770715Y-103566436D02*
X61616665Y-103106915D01*
X151523712Y-109663321D02*
X149947526Y-109027225D01*
X123176373Y-55452275D02*
X122990122Y-54989895D01*
X61901494Y-113902301D02*
X61999548Y-114441756D01*
X149345357Y-94556061D02*
X149388278Y-95344171D01*
X156176499Y-99493777D02*
X154109266Y-98871589D01*
X73990420Y-135373316D02*
X74394722Y-136015203D01*
X93616175Y-62412020D02*
X93864580Y-61397552D01*
X125133405Y-63662168D02*
X124483453Y-63396079D01*
X82861228Y-143719632D02*
X83089704Y-141400959D01*
X125682541Y-140183109D02*
X125108824Y-140426518D01*
X101361814Y-144972792D02*
X100904550Y-145764498D01*
X158478591Y-103090526D02*
X158077240Y-103762745D01*
X84726485Y-134971332D02*
X85259957Y-135518988D01*
X82864689Y-134555812D02*
X82549113Y-134375112D01*
X90057044Y-63483342D02*
X91174390Y-64480065D01*
X100055299Y-144836418D02*
X99130598Y-146508228D01*
X156814649Y-99782831D02*
X156176499Y-99493777D01*
X142452589Y-126929522D02*
X142164623Y-127308306D01*
X129708054Y-59766666D02*
X130689132Y-58972456D01*
X124367624Y-139411403D02*
X123293252Y-139837781D01*
X140982208Y-67431208D02*
X142402717Y-66810952D01*
X127467788Y-138825926D02*
X127141710Y-138527044D01*
X148532082Y-115639047D02*
X149313735Y-115799519D01*
X85259957Y-135518988D02*
X85468323Y-136060549D01*
X148249398Y-116525900D02*
X147771048Y-117670752D01*
X84321347Y-134604881D02*
X84726485Y-134971332D01*
X66900776Y-78746427D02*
X66932600Y-78102995D01*
X60199714Y-102479541D02*
X60653854Y-103105258D01*
X77230211Y-128531782D02*
X76630673Y-129537539D01*
X111609057Y-150054575D02*
X111329415Y-150665142D01*
X156385244Y-90423399D02*
X156377678Y-89651563D01*
X114720113Y-59928067D02*
X115491380Y-59954781D01*
X96244481Y-148732690D02*
X96987424Y-149003695D01*
X75337799Y-130160025D02*
X75543634Y-129737780D01*
X124443726Y-62484334D02*
X124568096Y-62558369D01*
X148170121Y-88072999D02*
X148512043Y-88100305D01*
X155814014Y-99944783D02*
X156570007Y-100313248D01*
X136092567Y-134509581D02*
X135174254Y-134464285D01*
X145835499Y-77663751D02*
X146916964Y-77305971D01*
X151331057Y-79660517D02*
X151767347Y-78577499D01*
X105392115Y-145761975D02*
X105202877Y-144896268D01*
X68651128Y-107366237D02*
X68561979Y-106477257D01*
X144492245Y-133060243D02*
X144835203Y-133827238D01*
X148229449Y-82083167D02*
X147364886Y-82831866D01*
X132935534Y-59156562D02*
X132182348Y-59001925D01*
X101363322Y-61526059D02*
X103787411Y-61162454D01*
X138184008Y-135045521D02*
X140120047Y-136161310D01*
X94338261Y-54795609D02*
X94760611Y-54360360D01*
X112429967Y-143871846D02*
X112485299Y-142724667D01*
X80103488Y-68958728D02*
X80756643Y-69549959D01*
X68280241Y-105221866D02*
X67764428Y-104535240D01*
X62140966Y-91136623D02*
X62437720Y-91361525D01*
X135952342Y-70558925D02*
X136285170Y-70459998D01*
X83991694Y-66450728D02*
X83528708Y-65312335D01*
X114600121Y-60487825D02*
X112485299Y-60487825D01*
X96872369Y-148304955D02*
X95708625Y-147677302D01*
X123097304Y-141142116D02*
X123358439Y-140349051D01*
X116214170Y-59758769D02*
X116282599Y-59504340D01*
X75526864Y-73412600D02*
X74481541Y-71885506D01*
X149449775Y-95905818D02*
X149568390Y-96899301D01*
X65813353Y-86441687D02*
X67109623Y-86492870D01*
X141755914Y-77375013D02*
X142699589Y-78339846D01*
X87830321Y-60278326D02*
X86942400Y-59494494D01*
X144708330Y-77390786D02*
X143745353Y-77793272D01*
X144047081Y-134330867D02*
X143540198Y-132634135D01*
X100385861Y-146917529D02*
X99891658Y-147708576D01*
X76815126Y-73164444D02*
X75945557Y-71930464D01*
X123520331Y-57634247D02*
X123315653Y-56032950D01*
X134450527Y-140921741D02*
X134312293Y-140171413D01*
X154996928Y-115122359D02*
X153789982Y-115419217D01*
X75945557Y-71930464D02*
X74825594Y-69889833D01*
X77816837Y-135647866D02*
X76520871Y-136190224D01*
X150128099Y-98083825D02*
X150078405Y-96862533D01*
X66936423Y-126289254D02*
X67264869Y-126620332D01*
X157158611Y-89889468D02*
X157051502Y-90712833D01*
X77863917Y-75237440D02*
X77979399Y-74934719D01*
X107076675Y-149146525D02*
X107520514Y-149870263D01*
X106049282Y-145266675D02*
X106250608Y-146260306D01*
X154853014Y-91219647D02*
X153677427Y-91991067D01*
X154751273Y-116574484D02*
X152528914Y-116752999D01*
X149568390Y-96899301D02*
X149824310Y-98174713D01*
X80145743Y-134299211D02*
X77816837Y-135647866D01*
X145320260Y-126846972D02*
X143193899Y-126010419D01*
X150069037Y-106457468D02*
X150156244Y-105653006D01*
X109526882Y-52770927D02*
X108020453Y-53027803D01*
X73425468Y-133557494D02*
X73746284Y-132825584D01*
X120488244Y-54938611D02*
X121582526Y-54875964D01*
X133168615Y-138090470D02*
X133959363Y-140727552D01*
X155696054Y-112199629D02*
X154913078Y-111487787D01*
X74443133Y-131531835D02*
X74733338Y-131129343D01*
X95430142Y-62978464D02*
X95245719Y-60539970D01*
X66748367Y-77151529D02*
X66469083Y-77762918D01*
X151767347Y-78577499D02*
X151759164Y-78153525D01*
X77261137Y-74873948D02*
X77317828Y-75067598D01*
X112308494Y-55531236D02*
X112792627Y-57592746D01*
X95708625Y-147677302D02*
X95282427Y-146988407D01*
X146800037Y-118435844D02*
X146976390Y-117960469D01*
X62786784Y-111831653D02*
X62144479Y-112379206D01*
X122795680Y-140033446D02*
X122680773Y-140885894D01*
X70960185Y-119619534D02*
X69549686Y-120836964D01*
X107324605Y-54593032D02*
X107898435Y-53850294D01*
X132296711Y-67165502D02*
X132287282Y-67838721D01*
X115620561Y-60464027D02*
X114600121Y-60487825D01*
X112948038Y-145110696D02*
X112716173Y-146350019D01*
X82591928Y-70354973D02*
X83505211Y-69876413D01*
X112095614Y-60416958D02*
X112233867Y-60698673D01*
X126117197Y-64759527D02*
X127260585Y-64483133D01*
X154109266Y-98871589D02*
X152934799Y-98615087D01*
X67266267Y-77346333D02*
X67605745Y-76904020D01*
X103477525Y-59925550D02*
X104932554Y-60023676D01*
X66109436Y-94124645D02*
X65564407Y-93889823D01*
X155621833Y-90425583D02*
X155209063Y-90907767D01*
X151129552Y-78094634D02*
X151089116Y-78985706D01*
X155610491Y-114510035D02*
X154996928Y-115122359D01*
X156319349Y-103836633D02*
X156818371Y-103608701D01*
X67264869Y-126620332D02*
X68280674Y-126984596D01*
X116282599Y-59504340D02*
X116348521Y-59114149D01*
X85362384Y-137863578D02*
X85808483Y-136213607D01*
X156510327Y-103110760D02*
X155658949Y-103503484D01*
X69093645Y-83126043D02*
X68413498Y-82442590D01*
X142699589Y-78339846D02*
X143001134Y-78482286D01*
X99221151Y-55767371D02*
X97952013Y-54682805D01*
X94575370Y-61629586D02*
X94392120Y-62735658D01*
X110618353Y-53307524D02*
X110333126Y-53055182D01*
X143745353Y-77793272D02*
X143370756Y-77929751D01*
X134010546Y-135465904D02*
X133858053Y-136397910D01*
X141928896Y-126692925D02*
X142239295Y-126566830D01*
X153786299Y-111505365D02*
X153979259Y-111565893D01*
X71148112Y-120259714D02*
X71539398Y-120088925D01*
X80599522Y-134670395D02*
X81201747Y-134204349D01*
X151273298Y-127069563D02*
X151215288Y-127270775D01*
X59559595Y-103016563D02*
X59491566Y-102187093D01*
X63641160Y-92100946D02*
X64788258Y-92793330D01*
X84931657Y-139052265D02*
X85362384Y-137863578D01*
X73375657Y-77989905D02*
X74546834Y-78420027D01*
X123275787Y-54360812D02*
X123698411Y-54795290D01*
X137037752Y-135113771D02*
X136092567Y-134509581D01*
X62681173Y-99637259D02*
X64732683Y-99092623D01*
X74347199Y-68428209D02*
X74565440Y-67945279D01*
X94656615Y-56755011D02*
X94536028Y-58609332D01*
X150953599Y-86534337D02*
X152107440Y-86471312D01*
X85132148Y-144305393D02*
X85830203Y-144523725D01*
X94634481Y-145098111D02*
X94742120Y-146459936D01*
X70432755Y-83264167D02*
X71074022Y-83703120D01*
X66256100Y-78378630D02*
X66617554Y-79414473D01*
X67545480Y-98670382D02*
X68146511Y-98023620D01*
X96987424Y-149003695D02*
X97949165Y-148774592D01*
X75528882Y-136109484D02*
X74521340Y-135188151D01*
X140287238Y-128336098D02*
X140670068Y-129162569D01*
X149223681Y-109402665D02*
X150831590Y-110003086D01*
X143302822Y-77268416D02*
X144899361Y-76582573D01*
X70575458Y-118618180D02*
X70315505Y-117919631D01*
X98278188Y-147802435D02*
X97968834Y-148145688D01*
X82489984Y-133420293D02*
X82766296Y-133494419D01*
X95287848Y-54904986D02*
X94799369Y-55836573D01*
X141052364Y-129670741D02*
X142010582Y-131018716D01*
X94760611Y-54360360D02*
X95655885Y-53855699D01*
X110551293Y-148909069D02*
X109812686Y-149737909D01*
X133364466Y-69017850D02*
X134538611Y-69889299D01*
X122680773Y-140885894D02*
X122719796Y-142036232D01*
X157098388Y-112993977D02*
X157045092Y-113582595D01*
X77267192Y-73752668D02*
X76815126Y-73164444D01*
X61616665Y-103106915D02*
X61257723Y-102879870D01*
X149736794Y-105139594D02*
X149540151Y-106409861D01*
X149991012Y-95863713D02*
X149850680Y-95177303D01*
X154408881Y-87861953D02*
X155066004Y-88286236D01*
X82752132Y-60114356D02*
X83897403Y-58859130D01*
X62614174Y-91419870D02*
X63255382Y-91813843D01*
X151473090Y-125967593D02*
X151580022Y-125619775D01*
X140832501Y-66055646D02*
X141615800Y-65713709D01*
X88433472Y-60865080D02*
X87830321Y-60278326D01*
X69261631Y-75598774D02*
X71771454Y-76058396D01*
X69759696Y-82952628D02*
X70432755Y-83264167D01*
X90418507Y-139751168D02*
X89127984Y-141273153D01*
X150423960Y-115381967D02*
X147661291Y-115209610D01*
X133306935Y-136965936D02*
X132983492Y-136149467D01*
X133284780Y-64971023D02*
X132596134Y-66352821D01*
X108668389Y-149861403D02*
X108010599Y-149459725D01*
X94303037Y-139670258D02*
X93648237Y-139386586D01*
X144896761Y-77981127D02*
X145835499Y-77663751D01*
X134823672Y-59375380D02*
X135224140Y-59781758D01*
X152107440Y-86471312D02*
X154042857Y-86558519D01*
X69823499Y-121374528D02*
X71148112Y-120259714D01*
X106798693Y-148633683D02*
X107076675Y-149146525D01*
X74521340Y-135188151D02*
X74347199Y-134661120D01*
X95655885Y-53855699D02*
X96731972Y-53513778D01*
X151110545Y-93855712D02*
X152274399Y-93344972D01*
X118854771Y-57073957D02*
X119615521Y-55823158D01*
X141054446Y-127505631D02*
X141490731Y-126931657D01*
X134420243Y-59862879D02*
X133843383Y-59528347D01*
X68965480Y-93951227D02*
X67157553Y-93151676D01*
X141295249Y-74189037D02*
X141443516Y-74104518D01*
X64981258Y-104104991D02*
X62770715Y-103566436D01*
X59491566Y-102187093D02*
X59488199Y-101574191D01*
X70225985Y-119510839D02*
X70537273Y-119296911D01*
X81032151Y-135268257D02*
X79570884Y-136166665D01*
X68660075Y-96040926D02*
X68965480Y-93951227D01*
X95432601Y-55839565D02*
X95910321Y-55061635D01*
X148215099Y-119516879D02*
X149246386Y-120395684D01*
X84770715Y-59922322D02*
X85239305Y-59783211D01*
X67509433Y-87121285D02*
X66141504Y-87093417D01*
X67852774Y-122480273D02*
X66798882Y-123772691D01*
X106046872Y-148321025D02*
X105919824Y-148016944D01*
X60412858Y-100372313D02*
X60231882Y-100975355D01*
X156605521Y-87993606D02*
X156880179Y-88751123D01*
X149812202Y-104876582D02*
X149736794Y-105139594D01*
X152362860Y-125719939D02*
X152012208Y-126280243D01*
X118792461Y-145997852D02*
X118474090Y-145540325D01*
X92238329Y-63058730D02*
X92725650Y-62774355D01*
X107898435Y-53850294D02*
X108243431Y-53635529D01*
X87206457Y-144774913D02*
X86168054Y-145214977D01*
X61224352Y-100343275D02*
X61583358Y-100107723D01*
X151497045Y-110271735D02*
X152631514Y-110831470D01*
X67759214Y-79963000D02*
X67062892Y-79072317D01*
X99130598Y-146508228D02*
X98278188Y-147802435D01*
X122966450Y-56860374D02*
X122994113Y-57877319D01*
X74278128Y-67109563D02*
X74013359Y-67595913D01*
X76165168Y-125661838D02*
X75236683Y-124836941D01*
X75118443Y-78352689D02*
X76043935Y-77498759D01*
X129428404Y-142690911D02*
X129799263Y-142863805D01*
X116282599Y-143802249D02*
X116242334Y-143441562D01*
X148664340Y-121527370D02*
X149560538Y-122321763D01*
X151787134Y-115450420D02*
X150423960Y-115381967D01*
X123493346Y-145706818D02*
X123502522Y-143857764D01*
X131827699Y-143680817D02*
X130467162Y-142498218D01*
X141329564Y-137527739D02*
X140882499Y-137259325D01*
X93992173Y-143347379D02*
X93944676Y-141814736D01*
X122990122Y-54989895D02*
X122511536Y-54448571D01*
X146709034Y-76031225D02*
X148818002Y-75668742D01*
X146591683Y-85892556D02*
X146954466Y-86573625D01*
X85045204Y-65767462D02*
X84624037Y-64650042D01*
X84800270Y-134314254D02*
X84102510Y-133816824D01*
X140559842Y-137026121D02*
X140070667Y-136929125D01*
X101753799Y-143985221D02*
X101681052Y-144599107D01*
X81693620Y-69479756D02*
X81354531Y-69201597D01*
X116815230Y-57956464D02*
X118049125Y-55828322D01*
X74848772Y-65872197D02*
X75719757Y-65187080D01*
X130347260Y-144037227D02*
X129573149Y-143364727D01*
X70302413Y-115911553D02*
X71009677Y-117585599D01*
X75160239Y-130563412D02*
X75337799Y-130160025D01*
X133836088Y-67116651D02*
X134146308Y-67920348D01*
X59491541Y-100961500D02*
X59558861Y-100133489D01*
X93659389Y-139898992D02*
X94386443Y-140242550D01*
X152575986Y-87788779D02*
X154003400Y-87809622D01*
X109429674Y-149903766D02*
X108668389Y-149861403D01*
X156979749Y-99032741D02*
X158548199Y-99734246D01*
X66929714Y-108862125D02*
X67180750Y-108793066D01*
X140120047Y-136161310D02*
X141772292Y-136643098D01*
X70545564Y-86889967D02*
X69797859Y-87161110D01*
X150718129Y-126901844D02*
X151273298Y-127069563D01*
X137392158Y-69791994D02*
X138029974Y-69305194D01*
X123364553Y-142227593D02*
X123239286Y-141717025D01*
X125358324Y-139529791D02*
X125826932Y-139267219D01*
X62822032Y-115009182D02*
X62542539Y-114502026D01*
X81350853Y-133376461D02*
X80145743Y-134299211D01*
X115647357Y-143240168D02*
X114910744Y-143337889D01*
X123439303Y-60870688D02*
X123537112Y-60596735D01*
X62293591Y-115340268D02*
X62453363Y-115588657D01*
X112289166Y-58664384D02*
X111974354Y-56792045D01*
X126856390Y-140312371D02*
X126484532Y-140130725D01*
X94004633Y-145860846D02*
X93994099Y-144513523D01*
X149850680Y-95177303D02*
X149894472Y-94775062D01*
X62556817Y-90370925D02*
X62239721Y-89863165D01*
X75075351Y-126528058D02*
X74420261Y-126454340D01*
X131806056Y-59104217D02*
X130701357Y-59813458D01*
X128834309Y-62485273D02*
X130460972Y-60931253D01*
X69976298Y-84088806D02*
X69093645Y-83126043D01*
X147692332Y-116082670D02*
X148532082Y-115639047D01*
X134224470Y-134173216D02*
X135022115Y-133631832D01*
X62837188Y-88342736D02*
X63314291Y-87957784D01*
X141576499Y-129528898D02*
X141074779Y-128854501D01*
X89127984Y-141273153D02*
X87230030Y-143109729D01*
X67346304Y-76370081D02*
X66861057Y-76607845D01*
X73138472Y-77290567D02*
X71425276Y-76660940D01*
X127260585Y-64483133D02*
X127509399Y-64218051D01*
X133328516Y-134129029D02*
X132588975Y-134886719D01*
X70195345Y-115336955D02*
X68791779Y-115336779D01*
X152563404Y-109278656D02*
X154436967Y-110391443D01*
X84921157Y-58338394D02*
X85485337Y-58146139D01*
X61399302Y-103521869D02*
X61952657Y-103780986D01*
X132983492Y-136149467D02*
X133140491Y-135096187D01*
X69419715Y-81577651D02*
X67759214Y-79963000D01*
X66444728Y-92841225D02*
X65408242Y-92415215D01*
X95306455Y-143095454D02*
X95501166Y-141519354D01*
X158077240Y-103762745D02*
X157482758Y-104112927D01*
X77896058Y-136988204D02*
X76465294Y-137508398D01*
X143196270Y-133118666D02*
X143629002Y-134216647D01*
X116683060Y-143381420D02*
X117174991Y-144539288D01*
X123293252Y-139837781D02*
X122999338Y-139900925D01*
X86283305Y-143765359D02*
X85980951Y-143852824D01*
X129573149Y-143364727D02*
X128771834Y-142608707D01*
X149313735Y-115799519D02*
X150639013Y-116043826D01*
X101782892Y-143508320D02*
X101753799Y-143985221D01*
X144627053Y-125154694D02*
X143088407Y-124400606D01*
X156214273Y-90722438D02*
X156385244Y-90423399D01*
X72102811Y-119411753D02*
X71791002Y-118292420D01*
X139529029Y-68237546D02*
X140982208Y-67431208D01*
X118474090Y-145540325D02*
X118251944Y-145211040D01*
X95750230Y-54669354D02*
X95287848Y-54904986D01*
X146779857Y-84292413D02*
X147582443Y-83456796D01*
X112523090Y-60830674D02*
X113852995Y-61098936D01*
X63482910Y-104952368D02*
X61415677Y-104341370D01*
X155226431Y-98426723D02*
X156979749Y-99032741D01*
X68027781Y-81077695D02*
X68430125Y-81529482D01*
X144835203Y-133827238D02*
X145076855Y-134350732D01*
X74928130Y-124711725D02*
X74280753Y-124856323D01*
X95286093Y-56602420D02*
X95432601Y-55839565D01*
X111333307Y-149049948D02*
X111761077Y-147916985D01*
X97614364Y-54947552D02*
X98842162Y-56352568D01*
X74280753Y-124856323D02*
X73572696Y-125203975D01*
X71889494Y-119973787D02*
X72111419Y-119696964D01*
X77649199Y-136621177D02*
X77867441Y-136336821D01*
X114549049Y-142615864D02*
X115124846Y-142590275D01*
X156362032Y-87569804D02*
X156605521Y-87993606D01*
X142387759Y-130626088D02*
X141576499Y-129528898D01*
X152456293Y-87155367D02*
X149792995Y-87339440D01*
X76520871Y-136190224D02*
X76105227Y-136268725D01*
X67764428Y-104535240D02*
X66899157Y-104263786D01*
X123239286Y-141717025D02*
X123097304Y-141142116D01*
X67833198Y-75556554D02*
X69261631Y-75598774D01*
X138435575Y-136121167D02*
X137705091Y-135608325D01*
X131644591Y-144029209D02*
X133065236Y-144147819D01*
X61999548Y-114441756D02*
X62293591Y-115340268D01*
X147074768Y-85787090D02*
X146714372Y-84818358D01*
X71601142Y-85588257D02*
X71979732Y-84404103D01*
X98842162Y-56352568D02*
X99772599Y-57819802D01*
X134722913Y-138731218D02*
X135047256Y-140520386D01*
X147364886Y-82831866D02*
X146183121Y-84074555D01*
X78951811Y-68129078D02*
X80103488Y-68958728D01*
X156880179Y-88751123D02*
X157158611Y-89889468D01*
X132287282Y-67838721D02*
X132486371Y-68163652D01*
X154003400Y-87809622D02*
X154408881Y-87861953D01*
X121908340Y-149426183D02*
X120911114Y-149640818D01*
X152640986Y-78911996D02*
X152487027Y-79309225D01*
X83687131Y-138415771D02*
X83950790Y-137693621D01*
X152581470Y-104957898D02*
X154906879Y-104366014D01*
X70256422Y-85620942D02*
X70382516Y-84999185D01*
X124483453Y-63396079D02*
X123860327Y-63082481D01*
X93994099Y-144513523D02*
X93992173Y-143347379D01*
X144057163Y-71675702D02*
X143713829Y-72285373D01*
X147952941Y-126811785D02*
X149191970Y-126853745D01*
X123272977Y-62418985D02*
X123216799Y-61965212D01*
X155580014Y-89058852D02*
X155782259Y-89625979D01*
X63857987Y-92994252D02*
X61713687Y-91337449D01*
X134095837Y-139263082D02*
X133560169Y-137555164D01*
X133140491Y-135096187D02*
X133607736Y-134947925D01*
X146976390Y-117960469D02*
X147280232Y-117424630D01*
X61713687Y-91337449D02*
X60929063Y-90330957D01*
X82549113Y-134375112D02*
X81948460Y-134513177D01*
X104783844Y-143706772D02*
X104605660Y-143529491D01*
X118049125Y-55828322D02*
X118991686Y-54577540D01*
X66183666Y-123507567D02*
X66997834Y-122432957D01*
X105504372Y-142707625D02*
X106049282Y-145266675D01*
X147899249Y-85719940D02*
X148477099Y-86735874D01*
X85290581Y-136377457D02*
X85081942Y-136754425D01*
X75090149Y-67339949D02*
X75833099Y-66647456D01*
X136096612Y-132896623D02*
X135375270Y-132882668D01*
X117801091Y-147001769D02*
X116692364Y-145122575D01*
X66625990Y-125776494D02*
X66936423Y-126289254D01*
X106745769Y-146221088D02*
X106491333Y-144459174D01*
X133878698Y-133725295D02*
X133328516Y-134129029D01*
X151087397Y-125110515D02*
X150677562Y-125814298D01*
X147518521Y-118332439D02*
X147702536Y-119097474D01*
X94782271Y-142268193D02*
X94634481Y-145098111D01*
X83505211Y-69876413D02*
X84076272Y-69430586D01*
X94035321Y-55962972D02*
X94338261Y-54795609D01*
X134538611Y-69889299D02*
X135596197Y-70471762D01*
X137133974Y-134256994D02*
X138184008Y-135045521D01*
X149115687Y-88007184D02*
X150769573Y-87861794D01*
X76739230Y-128380634D02*
X75955964Y-127389949D01*
X155774202Y-87999509D02*
X155128910Y-87497766D01*
X135404297Y-60613447D02*
X135285357Y-61692863D01*
X142402717Y-66810952D02*
X143290636Y-67698871D01*
X67084510Y-109447220D02*
X66530349Y-109673165D01*
X131171082Y-143733750D02*
X131644591Y-144029209D01*
X76193767Y-130142545D02*
X75540117Y-131034677D01*
X66881985Y-93664297D02*
X67874118Y-94106013D01*
X94617072Y-148702682D02*
X94153639Y-147697671D01*
X65596078Y-78803349D02*
X65692476Y-77756754D01*
X85468323Y-136060549D02*
X85290581Y-136377457D01*
X75984442Y-137585342D02*
X75552848Y-137505751D01*
X71009677Y-117585599D02*
X71324019Y-118386307D01*
X141991670Y-136268725D02*
X141621662Y-136213961D01*
X74420261Y-126454340D02*
X73412370Y-126747745D01*
X94386443Y-140242550D02*
X95029274Y-140827530D01*
M02*
