%TF.GenerationSoftware,KiCad,Pcbnew,9.0.7*%
%TF.CreationDate,2026-02-11T00:05:44+01:00*%
%TF.ProjectId,BlinkerLED,426c696e-6b65-4724-9c45-442e6b696361,rev?*%
%TF.SameCoordinates,Original*%
%TF.FileFunction,Soldermask,Bot*%
%TF.FilePolarity,Negative*%
%FSLAX46Y46*%
G04 Gerber Fmt 4.6, Leading zero omitted, Abs format (unit mm)*
G04 Created by KiCad (PCBNEW 9.0.7) date 2026-02-11 00:05:44*
%MOMM*%
%LPD*%
G01*
G04 APERTURE LIST*
G04 Aperture macros list*
%AMRoundRect*
0 Rectangle with rounded corners*
0 $1 Rounding radius*
0 $2 $3 $4 $5 $6 $7 $8 $9 X,Y pos of 4 corners*
0 Add a 4 corners polygon primitive as box body*
4,1,4,$2,$3,$4,$5,$6,$7,$8,$9,$2,$3,0*
0 Add four circle primitives for the rounded corners*
1,1,$1+$1,$2,$3*
1,1,$1+$1,$4,$5*
1,1,$1+$1,$6,$7*
1,1,$1+$1,$8,$9*
0 Add four rect primitives between the rounded corners*
20,1,$1+$1,$2,$3,$4,$5,0*
20,1,$1+$1,$4,$5,$6,$7,0*
20,1,$1+$1,$6,$7,$8,$9,0*
20,1,$1+$1,$8,$9,$2,$3,0*%
G04 Aperture macros list end*
%ADD10R,1.800000X1.800000*%
%ADD11C,1.800000*%
%ADD12RoundRect,0.250000X-0.550000X-0.550000X0.550000X-0.550000X0.550000X0.550000X-0.550000X0.550000X0*%
%ADD13C,1.600000*%
%ADD14RoundRect,0.412500X-0.412500X-0.412500X0.412500X-0.412500X0.412500X0.412500X-0.412500X0.412500X0*%
%ADD15C,1.650000*%
%ADD16R,1.700000X1.700000*%
%ADD17R,1.295400X1.295400*%
%ADD18C,1.295400*%
%ADD19C,2.000000*%
%ADD20C,1.700000*%
G04 APERTURE END LIST*
D10*
%TO.C,D6*%
X108000000Y-140500000D03*
D11*
X110540000Y-140500000D03*
%TD*%
D10*
%TO.C,D1*%
X107730000Y-61500000D03*
D11*
X110270000Y-61500000D03*
%TD*%
D12*
%TO.C,U1*%
X105195000Y-116190000D03*
D13*
X105195000Y-118730000D03*
X105195000Y-121270000D03*
X105195000Y-123810000D03*
X112815000Y-123810000D03*
X112815000Y-121270000D03*
X112815000Y-118730000D03*
X112815000Y-116190000D03*
%TD*%
D10*
%TO.C,D7*%
X79730000Y-129500000D03*
D11*
X82270000Y-129500000D03*
%TD*%
D14*
%TO.C,RV1*%
X93460000Y-97112500D03*
D15*
X96000000Y-97112500D03*
X98540000Y-97112500D03*
%TD*%
D12*
%TO.C,C4*%
X95044888Y-103000000D03*
D13*
X97044888Y-103000000D03*
%TD*%
D16*
%TO.C,J2*%
X99500000Y-119500000D03*
%TD*%
D10*
%TO.C,D3*%
X146460000Y-91500000D03*
D11*
X149000000Y-91500000D03*
%TD*%
D17*
%TO.C,U2*%
X104880000Y-92000000D03*
D18*
X104880000Y-94540000D03*
X104880000Y-97080000D03*
X104880000Y-99620000D03*
X104880000Y-102160000D03*
X104880000Y-104700000D03*
X104880000Y-107240000D03*
X104880000Y-109780000D03*
X112500000Y-109780000D03*
X112500000Y-107240000D03*
X112500000Y-104700000D03*
X112500000Y-102160000D03*
X112500000Y-99620000D03*
X112500000Y-97080000D03*
X112500000Y-94540000D03*
X112500000Y-92000000D03*
%TD*%
D19*
%TO.C,C3*%
X94000000Y-85000000D03*
X99000000Y-85000000D03*
%TD*%
D10*
%TO.C,D5*%
X135230000Y-128500000D03*
D11*
X137770000Y-128500000D03*
%TD*%
D10*
%TO.C,D9*%
X70230000Y-91000000D03*
D11*
X72770000Y-91000000D03*
%TD*%
D10*
%TO.C,D10*%
X79730000Y-73500000D03*
D11*
X82270000Y-73500000D03*
%TD*%
D10*
%TO.C,D2*%
X135730000Y-73500000D03*
D11*
X138270000Y-73500000D03*
%TD*%
D13*
%TO.C,R3*%
X92690000Y-90000000D03*
X100310000Y-90000000D03*
%TD*%
D16*
%TO.C,J1*%
X117225000Y-139500000D03*
D20*
X119765000Y-139500000D03*
%TD*%
D13*
%TO.C,R4*%
X117690000Y-134500000D03*
X125310000Y-134500000D03*
%TD*%
D10*
%TO.C,D4*%
X146230000Y-112000000D03*
D11*
X148770000Y-112000000D03*
%TD*%
D10*
%TO.C,D8*%
X69960000Y-111500000D03*
D11*
X72500000Y-111500000D03*
%TD*%
M02*
