%TF.GenerationSoftware,KiCad,Pcbnew,9.0.7*%
%TF.CreationDate,2026-02-11T00:05:44+01:00*%
%TF.ProjectId,BlinkerLED,426c696e-6b65-4724-9c45-442e6b696361,rev?*%
%TF.SameCoordinates,Original*%
%TF.FileFunction,Copper,L1,Top*%
%TF.FilePolarity,Positive*%
%FSLAX46Y46*%
G04 Gerber Fmt 4.6, Leading zero omitted, Abs format (unit mm)*
G04 Created by KiCad (PCBNEW 9.0.7) date 2026-02-11 00:05:44*
%MOMM*%
%LPD*%
G01*
G04 APERTURE LIST*
G04 Aperture macros list*
%AMRoundRect*
0 Rectangle with rounded corners*
0 $1 Rounding radius*
0 $2 $3 $4 $5 $6 $7 $8 $9 X,Y pos of 4 corners*
0 Add a 4 corners polygon primitive as box body*
4,1,4,$2,$3,$4,$5,$6,$7,$8,$9,$2,$3,0*
0 Add four circle primitives for the rounded corners*
1,1,$1+$1,$2,$3*
1,1,$1+$1,$4,$5*
1,1,$1+$1,$6,$7*
1,1,$1+$1,$8,$9*
0 Add four rect primitives between the rounded corners*
20,1,$1+$1,$2,$3,$4,$5,0*
20,1,$1+$1,$4,$5,$6,$7,0*
20,1,$1+$1,$6,$7,$8,$9,0*
20,1,$1+$1,$8,$9,$2,$3,0*%
G04 Aperture macros list end*
%TA.AperFunction,ComponentPad*%
%ADD10R,1.800000X1.800000*%
%TD*%
%TA.AperFunction,ComponentPad*%
%ADD11C,1.800000*%
%TD*%
%TA.AperFunction,ComponentPad*%
%ADD12RoundRect,0.250000X-0.550000X-0.550000X0.550000X-0.550000X0.550000X0.550000X-0.550000X0.550000X0*%
%TD*%
%TA.AperFunction,ComponentPad*%
%ADD13C,1.600000*%
%TD*%
%TA.AperFunction,ComponentPad*%
%ADD14RoundRect,0.412500X-0.412500X-0.412500X0.412500X-0.412500X0.412500X0.412500X-0.412500X0.412500X0*%
%TD*%
%TA.AperFunction,ComponentPad*%
%ADD15C,1.650000*%
%TD*%
%TA.AperFunction,ComponentPad*%
%ADD16R,1.700000X1.700000*%
%TD*%
%TA.AperFunction,ComponentPad*%
%ADD17R,1.295400X1.295400*%
%TD*%
%TA.AperFunction,ComponentPad*%
%ADD18C,1.295400*%
%TD*%
%TA.AperFunction,ComponentPad*%
%ADD19C,2.000000*%
%TD*%
%TA.AperFunction,ComponentPad*%
%ADD20C,1.700000*%
%TD*%
%TA.AperFunction,Conductor*%
%ADD21C,0.200000*%
%TD*%
G04 APERTURE END LIST*
D10*
%TO.P,D6,1,K*%
%TO.N,Net-(D1-K)*%
X108000000Y-140500000D03*
D11*
%TO.P,D6,2,A*%
%TO.N,Net-(D6-A)*%
X110540000Y-140500000D03*
%TD*%
D10*
%TO.P,D1,1,K*%
%TO.N,Net-(D1-K)*%
X107730000Y-61500000D03*
D11*
%TO.P,D1,2,A*%
%TO.N,Net-(D1-A)*%
X110270000Y-61500000D03*
%TD*%
D12*
%TO.P,U1,1,GND*%
%TO.N,GND*%
X105195000Y-116190000D03*
D13*
%TO.P,U1,2,TRIG*%
%TO.N,TR*%
X105195000Y-118730000D03*
%TO.P,U1,3,OUT*%
%TO.N,OUT*%
X105195000Y-121270000D03*
%TO.P,U1,4,~{RST}*%
%TO.N,+5V*%
X105195000Y-123810000D03*
%TO.P,U1,5,CONT*%
%TO.N,Net-(U1-CONT)*%
X112815000Y-123810000D03*
%TO.P,U1,6,THRES*%
%TO.N,TR*%
X112815000Y-121270000D03*
%TO.P,U1,7,DISCH*%
%TO.N,Net-(U1-DISCH)*%
X112815000Y-118730000D03*
%TO.P,U1,8,VCC*%
%TO.N,+5V*%
X112815000Y-116190000D03*
%TD*%
D10*
%TO.P,D7,1,K*%
%TO.N,Net-(D1-K)*%
X79730000Y-129500000D03*
D11*
%TO.P,D7,2,A*%
%TO.N,Net-(D7-A)*%
X82270000Y-129500000D03*
%TD*%
D14*
%TO.P,RV1,1,1*%
%TO.N,Net-(U1-DISCH)*%
X93460000Y-97112500D03*
D15*
%TO.P,RV1,2,2*%
X96000000Y-97112500D03*
%TO.P,RV1,3,3*%
%TO.N,TR*%
X98540000Y-97112500D03*
%TD*%
D12*
%TO.P,C4,1*%
%TO.N,GND*%
X95044888Y-103000000D03*
D13*
%TO.P,C4,2*%
%TO.N,TR*%
X97044888Y-103000000D03*
%TD*%
D16*
%TO.P,J2,1,Pin_1*%
%TO.N,OUT*%
X99500000Y-119500000D03*
%TD*%
D10*
%TO.P,D3,1,K*%
%TO.N,Net-(D1-K)*%
X146460000Y-91500000D03*
D11*
%TO.P,D3,2,A*%
%TO.N,Net-(D3-A)*%
X149000000Y-91500000D03*
%TD*%
D17*
%TO.P,U2,1,Q5*%
%TO.N,Net-(D6-A)*%
X104880000Y-92000000D03*
D18*
%TO.P,U2,2,Q1*%
%TO.N,Net-(D2-A)*%
X104880000Y-94540000D03*
%TO.P,U2,3,Q0*%
%TO.N,Net-(D1-A)*%
X104880000Y-97080000D03*
%TO.P,U2,4,Q2*%
%TO.N,Net-(D3-A)*%
X104880000Y-99620000D03*
%TO.P,U2,5,Q6*%
%TO.N,Net-(D7-A)*%
X104880000Y-102160000D03*
%TO.P,U2,6,Q7*%
%TO.N,Net-(D8-A)*%
X104880000Y-104700000D03*
%TO.P,U2,7,Q3*%
%TO.N,Net-(D4-A)*%
X104880000Y-107240000D03*
%TO.P,U2,8,VSS*%
%TO.N,GND*%
X104880000Y-109780000D03*
%TO.P,U2,9,Q8*%
%TO.N,Net-(D9-A)*%
X112500000Y-109780000D03*
%TO.P,U2,10,Q4*%
%TO.N,Net-(D5-A)*%
X112500000Y-107240000D03*
%TO.P,U2,11,Q9*%
%TO.N,Net-(D10-A)*%
X112500000Y-104700000D03*
%TO.P,U2,12,Cout*%
%TO.N,unconnected-(U2-Cout-Pad12)*%
X112500000Y-102160000D03*
%TO.P,U2,13,CKEN*%
%TO.N,GND*%
X112500000Y-99620000D03*
%TO.P,U2,14,CLK*%
%TO.N,OUT*%
X112500000Y-97080000D03*
%TO.P,U2,15,Reset*%
%TO.N,GND*%
X112500000Y-94540000D03*
%TO.P,U2,16,VDD*%
%TO.N,+5V*%
X112500000Y-92000000D03*
%TD*%
D19*
%TO.P,C3,1*%
%TO.N,GND*%
X94000000Y-85000000D03*
%TO.P,C3,2*%
%TO.N,Net-(U1-CONT)*%
X99000000Y-85000000D03*
%TD*%
D10*
%TO.P,D5,1,K*%
%TO.N,Net-(D1-K)*%
X135230000Y-128500000D03*
D11*
%TO.P,D5,2,A*%
%TO.N,Net-(D5-A)*%
X137770000Y-128500000D03*
%TD*%
D10*
%TO.P,D9,1,K*%
%TO.N,Net-(D1-K)*%
X70230000Y-91000000D03*
D11*
%TO.P,D9,2,A*%
%TO.N,Net-(D9-A)*%
X72770000Y-91000000D03*
%TD*%
D10*
%TO.P,D10,1,K*%
%TO.N,Net-(D1-K)*%
X79730000Y-73500000D03*
D11*
%TO.P,D10,2,A*%
%TO.N,Net-(D10-A)*%
X82270000Y-73500000D03*
%TD*%
D10*
%TO.P,D2,1,K*%
%TO.N,Net-(D1-K)*%
X135730000Y-73500000D03*
D11*
%TO.P,D2,2,A*%
%TO.N,Net-(D2-A)*%
X138270000Y-73500000D03*
%TD*%
D13*
%TO.P,R3,1*%
%TO.N,+5V*%
X92690000Y-90000000D03*
%TO.P,R3,2*%
%TO.N,Net-(U1-DISCH)*%
X100310000Y-90000000D03*
%TD*%
D16*
%TO.P,J1,1,Pin_1*%
%TO.N,+5V*%
X117225000Y-139500000D03*
D20*
%TO.P,J1,2,Pin_2*%
%TO.N,GND*%
X119765000Y-139500000D03*
%TD*%
D13*
%TO.P,R4,1*%
%TO.N,Net-(D1-K)*%
X117690000Y-134500000D03*
%TO.P,R4,2*%
%TO.N,GND*%
X125310000Y-134500000D03*
%TD*%
D10*
%TO.P,D4,1,K*%
%TO.N,Net-(D1-K)*%
X146230000Y-112000000D03*
D11*
%TO.P,D4,2,A*%
%TO.N,Net-(D4-A)*%
X148770000Y-112000000D03*
%TD*%
D10*
%TO.P,D8,1,K*%
%TO.N,Net-(D1-K)*%
X69960000Y-111500000D03*
D11*
%TO.P,D8,2,A*%
%TO.N,Net-(D8-A)*%
X72500000Y-111500000D03*
%TD*%
D21*
%TO.N,GND*%
X116074000Y-140651000D02*
X118614000Y-140651000D01*
X120310000Y-139500000D02*
X119765000Y-139500000D01*
X111401000Y-95639000D02*
X111401000Y-98521000D01*
X94000000Y-85000000D02*
X90500000Y-88500000D01*
X104324888Y-109780000D02*
X104880000Y-109780000D01*
X89500000Y-90500000D02*
X89500000Y-106000000D01*
X89500000Y-106000000D02*
X99690000Y-116190000D01*
X90500000Y-98455112D02*
X95044888Y-103000000D01*
X97500000Y-82500000D02*
X89500000Y-90500000D01*
X112500000Y-94540000D02*
X111401000Y-95639000D01*
X99690000Y-116190000D02*
X105195000Y-116190000D01*
X105195000Y-116190000D02*
X103000000Y-118385000D01*
X103000000Y-127577000D02*
X116074000Y-140651000D01*
X103000000Y-118385000D02*
X103000000Y-127577000D01*
X125310000Y-134500000D02*
X120310000Y-139500000D01*
X90500000Y-88500000D02*
X90500000Y-98455112D01*
X112500000Y-94540000D02*
X115770000Y-91269999D01*
X111401000Y-98521000D02*
X112500000Y-99620000D01*
X115770000Y-91269999D02*
X107000001Y-82500000D01*
X118614000Y-140651000D02*
X119765000Y-139500000D01*
X107000001Y-82500000D02*
X97500000Y-82500000D01*
%TO.N,Net-(U1-CONT)*%
X111000000Y-94055735D02*
X112107035Y-92948700D01*
X114901000Y-121724000D02*
X114901000Y-115584750D01*
X112815000Y-123810000D02*
X114901000Y-121724000D01*
X113448700Y-91607035D02*
X106841665Y-85000000D01*
X113448700Y-92392965D02*
X113448700Y-91607035D01*
X112892965Y-92948700D02*
X113448700Y-92392965D01*
X111000000Y-111683750D02*
X111000000Y-94055735D01*
X106841665Y-85000000D02*
X99000000Y-85000000D01*
X112107035Y-92948700D02*
X112892965Y-92948700D01*
X114901000Y-115584750D02*
X111000000Y-111683750D01*
%TO.N,TR*%
X97044888Y-103000000D02*
X97044888Y-105044888D01*
X108836000Y-115089000D02*
X113271050Y-115089000D01*
X113271050Y-115089000D02*
X113916000Y-115733950D01*
X97044888Y-105044888D02*
X107089000Y-115089000D01*
X97044888Y-103000000D02*
X97044888Y-98607612D01*
X113916000Y-120169000D02*
X112815000Y-121270000D01*
X107089000Y-115089000D02*
X108836000Y-115089000D01*
X97044888Y-98607612D02*
X98540000Y-97112500D01*
X105195000Y-118730000D02*
X108836000Y-115089000D01*
X113916000Y-115733950D02*
X113916000Y-120169000D01*
%TO.N,Net-(D1-K)*%
X79730000Y-129500000D02*
X79730000Y-123230000D01*
X70230000Y-110770000D02*
X70230000Y-91000000D01*
X115744713Y-141052318D02*
X120887453Y-141052318D01*
X113991395Y-139299000D02*
X115744713Y-141052318D01*
X146460000Y-91500000D02*
X146460000Y-90460000D01*
X120690000Y-131500000D02*
X126000000Y-131500000D01*
X87934078Y-131934078D02*
X82164078Y-131934078D01*
X120887453Y-141052318D02*
X128219885Y-133719885D01*
X135230000Y-123000000D02*
X146230000Y-112000000D01*
X117690000Y-134500000D02*
X120690000Y-131500000D01*
X69960000Y-111040000D02*
X70230000Y-110770000D01*
X109201000Y-139299000D02*
X113991395Y-139299000D01*
X146460000Y-111540000D02*
X146460000Y-91500000D01*
X82230000Y-71000000D02*
X96500000Y-71000000D01*
X69960000Y-111500000D02*
X69960000Y-111040000D01*
X133439771Y-128500000D02*
X135230000Y-128500000D01*
X135730000Y-79730000D02*
X135730000Y-73500000D01*
X79730000Y-80135000D02*
X79730000Y-73500000D01*
X135230000Y-128500000D02*
X135230000Y-123000000D01*
X96500000Y-71000000D02*
X106000000Y-61500000D01*
X106000000Y-61500000D02*
X107730000Y-61500000D01*
X108000000Y-140500000D02*
X96500000Y-140500000D01*
X79730000Y-73500000D02*
X82230000Y-71000000D01*
X82164078Y-131934078D02*
X79730000Y-129500000D01*
X96500000Y-140500000D02*
X87934078Y-131934078D01*
X69960000Y-113460000D02*
X69960000Y-111500000D01*
X128219885Y-133719885D02*
X133439771Y-128500000D01*
X146230000Y-111770000D02*
X146460000Y-111540000D01*
X126000000Y-131500000D02*
X128219885Y-133719885D01*
X146230000Y-112000000D02*
X146230000Y-111770000D01*
X70230000Y-89635000D02*
X79730000Y-80135000D01*
X108000000Y-140500000D02*
X109201000Y-139299000D01*
X79730000Y-123230000D02*
X69960000Y-113460000D01*
X146460000Y-90460000D02*
X135730000Y-79730000D01*
X70230000Y-91000000D02*
X70230000Y-89635000D01*
%TO.N,Net-(D9-A)*%
X81069000Y-73002529D02*
X81772529Y-72299000D01*
X119401000Y-92833900D02*
X119401000Y-102879000D01*
X72770000Y-91000000D02*
X81069000Y-82701000D01*
X119401000Y-102879000D02*
X112500000Y-109780000D01*
X98866100Y-72299000D02*
X119401000Y-92833900D01*
X81772529Y-72299000D02*
X98866100Y-72299000D01*
X81069000Y-82701000D02*
X81069000Y-73002529D01*
%TO.N,Net-(D10-A)*%
X119000000Y-93000000D02*
X119000000Y-98200000D01*
X99500000Y-73500000D02*
X119000000Y-93000000D01*
X119000000Y-98200000D02*
X112500000Y-104700000D01*
X82270000Y-73500000D02*
X99500000Y-73500000D01*
%TO.N,+5V*%
X117225000Y-135840000D02*
X105195000Y-123810000D01*
X105195000Y-123810000D02*
X112815000Y-116190000D01*
X93791000Y-88899000D02*
X109399000Y-88899000D01*
X109399000Y-88899000D02*
X112500000Y-92000000D01*
X117225000Y-139500000D02*
X117225000Y-135840000D01*
X92690000Y-90000000D02*
X93791000Y-88899000D01*
%TO.N,OUT*%
X112500000Y-97080000D02*
X116171000Y-93409000D01*
X95061108Y-82099000D02*
X89099000Y-88061108D01*
X107166101Y-82099000D02*
X95061108Y-82099000D01*
X116171000Y-93409000D02*
X116171000Y-91103899D01*
X116171000Y-91103899D02*
X107166101Y-82099000D01*
X89099000Y-109099000D02*
X99500000Y-119500000D01*
X89099000Y-88061108D02*
X89099000Y-109099000D01*
%TO.N,Net-(U1-DISCH)*%
X114500000Y-115750850D02*
X114500000Y-121142050D01*
X114500000Y-121142050D02*
X113271050Y-122371000D01*
X96000000Y-97112500D02*
X97126000Y-95986500D01*
X103923888Y-100903983D02*
X103923888Y-110423888D01*
X96000000Y-94310000D02*
X100310000Y-90000000D01*
X112358950Y-122371000D02*
X111714000Y-121726050D01*
X96000000Y-97112500D02*
X96000000Y-94310000D01*
X97126000Y-95986500D02*
X99006405Y-95986500D01*
X99006405Y-95986500D02*
X103923888Y-100903983D01*
X93460000Y-97112500D02*
X96000000Y-97112500D01*
X112249150Y-113500000D02*
X114500000Y-115750850D01*
X103923888Y-110423888D02*
X107000000Y-113500000D01*
X113271050Y-122371000D02*
X112358950Y-122371000D01*
X111714000Y-119831000D02*
X112815000Y-118730000D01*
X107000000Y-113500000D02*
X112249150Y-113500000D01*
X111714000Y-121726050D02*
X111714000Y-119831000D01*
%TD*%
M02*
