M48
; DRILL file {KiCad 9.0.7} date 2026-02-11T00:06:12+0100
; FORMAT={-:-/ absolute / metric / decimal}
; #@! TF.CreationDate,2026-02-11T00:06:12+01:00
; #@! TF.GenerationSoftware,Kicad,Pcbnew,9.0.7
; #@! TF.FileFunction,Plated,1,2,PTH
FMAT,2
METRIC
; #@! TA.AperFunction,Plated,PTH,ComponentDrill
T1C0.787
; #@! TA.AperFunction,Plated,PTH,ComponentDrill
T2C0.800
; #@! TA.AperFunction,Plated,PTH,ComponentDrill
T3C0.850
; #@! TA.AperFunction,Plated,PTH,ComponentDrill
T4C0.900
; #@! TA.AperFunction,Plated,PTH,ComponentDrill
T5C1.000
%
G90
G05
T1
X104.88Y-92.0
X104.88Y-94.54
X104.88Y-97.08
X104.88Y-99.62
X104.88Y-102.16
X104.88Y-104.7
X104.88Y-107.24
X104.88Y-109.78
X112.5Y-92.0
X112.5Y-94.54
X112.5Y-97.08
X112.5Y-99.62
X112.5Y-102.16
X112.5Y-104.7
X112.5Y-107.24
X112.5Y-109.78
T2
X92.69Y-90.0
X95.045Y-103.0
X97.045Y-103.0
X100.31Y-90.0
X105.195Y-116.19
X105.195Y-118.73
X105.195Y-121.27
X105.195Y-123.81
X112.815Y-116.19
X112.815Y-118.73
X112.815Y-121.27
X112.815Y-123.81
X117.69Y-134.5
X125.31Y-134.5
T3
X93.46Y-97.112
X96.0Y-97.112
X98.54Y-97.112
T4
X69.96Y-111.5
X70.23Y-91.0
X72.5Y-111.5
X72.77Y-91.0
X79.73Y-73.5
X79.73Y-129.5
X82.27Y-73.5
X82.27Y-129.5
X107.73Y-61.5
X108.0Y-140.5
X110.27Y-61.5
X110.54Y-140.5
X135.23Y-128.5
X135.73Y-73.5
X137.77Y-128.5
X138.27Y-73.5
X146.23Y-112.0
X146.46Y-91.5
X148.77Y-112.0
X149.0Y-91.5
T5
X94.0Y-85.0
X99.0Y-85.0
X99.5Y-119.5
X117.225Y-139.5
X119.765Y-139.5
M30

