%TF.GenerationSoftware,KiCad,Pcbnew,9.0.7*%
%TF.CreationDate,2026-02-11T00:05:44+01:00*%
%TF.ProjectId,BlinkerLED,426c696e-6b65-4724-9c45-442e6b696361,rev?*%
%TF.SameCoordinates,Original*%
%TF.FileFunction,Legend,Top*%
%TF.FilePolarity,Positive*%
%FSLAX46Y46*%
G04 Gerber Fmt 4.6, Leading zero omitted, Abs format (unit mm)*
G04 Created by KiCad (PCBNEW 9.0.7) date 2026-02-11 00:05:44*
%MOMM*%
%LPD*%
G01*
G04 APERTURE LIST*
%ADD10C,0.100000*%
%ADD11C,0.150000*%
%ADD12C,0.120000*%
%ADD13C,0.152400*%
G04 APERTURE END LIST*
D10*
X86732455Y-65205752D02*
X86732455Y-66015276D01*
X86732455Y-66015276D02*
X86684836Y-66110514D01*
X86684836Y-66110514D02*
X86637217Y-66158133D01*
X86637217Y-66158133D02*
X86541979Y-66205752D01*
X86541979Y-66205752D02*
X86399122Y-66205752D01*
X86399122Y-66205752D02*
X86303884Y-66158133D01*
X86732455Y-65824800D02*
X86637217Y-65872419D01*
X86637217Y-65872419D02*
X86446741Y-65872419D01*
X86446741Y-65872419D02*
X86351503Y-65824800D01*
X86351503Y-65824800D02*
X86303884Y-65777180D01*
X86303884Y-65777180D02*
X86256265Y-65681942D01*
X86256265Y-65681942D02*
X86256265Y-65396228D01*
X86256265Y-65396228D02*
X86303884Y-65300990D01*
X86303884Y-65300990D02*
X86351503Y-65253371D01*
X86351503Y-65253371D02*
X86446741Y-65205752D01*
X86446741Y-65205752D02*
X86637217Y-65205752D01*
X86637217Y-65205752D02*
X86732455Y-65253371D01*
X87208646Y-65872419D02*
X87208646Y-65205752D01*
X87208646Y-64872419D02*
X87161027Y-64920038D01*
X87161027Y-64920038D02*
X87208646Y-64967657D01*
X87208646Y-64967657D02*
X87256265Y-64920038D01*
X87256265Y-64920038D02*
X87208646Y-64872419D01*
X87208646Y-64872419D02*
X87208646Y-64967657D01*
X87541979Y-65205752D02*
X87922931Y-65205752D01*
X87684836Y-64872419D02*
X87684836Y-65729561D01*
X87684836Y-65729561D02*
X87732455Y-65824800D01*
X87732455Y-65824800D02*
X87827693Y-65872419D01*
X87827693Y-65872419D02*
X87922931Y-65872419D01*
X88256265Y-65872419D02*
X88256265Y-64872419D01*
X88684836Y-65872419D02*
X88684836Y-65348609D01*
X88684836Y-65348609D02*
X88637217Y-65253371D01*
X88637217Y-65253371D02*
X88541979Y-65205752D01*
X88541979Y-65205752D02*
X88399122Y-65205752D01*
X88399122Y-65205752D02*
X88303884Y-65253371D01*
X88303884Y-65253371D02*
X88256265Y-65300990D01*
X89589598Y-65205752D02*
X89589598Y-65872419D01*
X89161027Y-65205752D02*
X89161027Y-65729561D01*
X89161027Y-65729561D02*
X89208646Y-65824800D01*
X89208646Y-65824800D02*
X89303884Y-65872419D01*
X89303884Y-65872419D02*
X89446741Y-65872419D01*
X89446741Y-65872419D02*
X89541979Y-65824800D01*
X89541979Y-65824800D02*
X89589598Y-65777180D01*
X90065789Y-65872419D02*
X90065789Y-64872419D01*
X90065789Y-65253371D02*
X90161027Y-65205752D01*
X90161027Y-65205752D02*
X90351503Y-65205752D01*
X90351503Y-65205752D02*
X90446741Y-65253371D01*
X90446741Y-65253371D02*
X90494360Y-65300990D01*
X90494360Y-65300990D02*
X90541979Y-65396228D01*
X90541979Y-65396228D02*
X90541979Y-65681942D01*
X90541979Y-65681942D02*
X90494360Y-65777180D01*
X90494360Y-65777180D02*
X90446741Y-65824800D01*
X90446741Y-65824800D02*
X90351503Y-65872419D01*
X90351503Y-65872419D02*
X90161027Y-65872419D01*
X90161027Y-65872419D02*
X90065789Y-65824800D01*
X90970551Y-65777180D02*
X91018170Y-65824800D01*
X91018170Y-65824800D02*
X90970551Y-65872419D01*
X90970551Y-65872419D02*
X90922932Y-65824800D01*
X90922932Y-65824800D02*
X90970551Y-65777180D01*
X90970551Y-65777180D02*
X90970551Y-65872419D01*
X91875312Y-65824800D02*
X91780074Y-65872419D01*
X91780074Y-65872419D02*
X91589598Y-65872419D01*
X91589598Y-65872419D02*
X91494360Y-65824800D01*
X91494360Y-65824800D02*
X91446741Y-65777180D01*
X91446741Y-65777180D02*
X91399122Y-65681942D01*
X91399122Y-65681942D02*
X91399122Y-65396228D01*
X91399122Y-65396228D02*
X91446741Y-65300990D01*
X91446741Y-65300990D02*
X91494360Y-65253371D01*
X91494360Y-65253371D02*
X91589598Y-65205752D01*
X91589598Y-65205752D02*
X91780074Y-65205752D01*
X91780074Y-65205752D02*
X91875312Y-65253371D01*
X92446741Y-65872419D02*
X92351503Y-65824800D01*
X92351503Y-65824800D02*
X92303884Y-65777180D01*
X92303884Y-65777180D02*
X92256265Y-65681942D01*
X92256265Y-65681942D02*
X92256265Y-65396228D01*
X92256265Y-65396228D02*
X92303884Y-65300990D01*
X92303884Y-65300990D02*
X92351503Y-65253371D01*
X92351503Y-65253371D02*
X92446741Y-65205752D01*
X92446741Y-65205752D02*
X92589598Y-65205752D01*
X92589598Y-65205752D02*
X92684836Y-65253371D01*
X92684836Y-65253371D02*
X92732455Y-65300990D01*
X92732455Y-65300990D02*
X92780074Y-65396228D01*
X92780074Y-65396228D02*
X92780074Y-65681942D01*
X92780074Y-65681942D02*
X92732455Y-65777180D01*
X92732455Y-65777180D02*
X92684836Y-65824800D01*
X92684836Y-65824800D02*
X92589598Y-65872419D01*
X92589598Y-65872419D02*
X92446741Y-65872419D01*
X93208646Y-65872419D02*
X93208646Y-65205752D01*
X93208646Y-65300990D02*
X93256265Y-65253371D01*
X93256265Y-65253371D02*
X93351503Y-65205752D01*
X93351503Y-65205752D02*
X93494360Y-65205752D01*
X93494360Y-65205752D02*
X93589598Y-65253371D01*
X93589598Y-65253371D02*
X93637217Y-65348609D01*
X93637217Y-65348609D02*
X93637217Y-65872419D01*
X93637217Y-65348609D02*
X93684836Y-65253371D01*
X93684836Y-65253371D02*
X93780074Y-65205752D01*
X93780074Y-65205752D02*
X93922931Y-65205752D01*
X93922931Y-65205752D02*
X94018170Y-65253371D01*
X94018170Y-65253371D02*
X94065789Y-65348609D01*
X94065789Y-65348609D02*
X94065789Y-65872419D01*
X95256264Y-64824800D02*
X94399122Y-66110514D01*
X95541979Y-65586704D02*
X96018169Y-65586704D01*
X95446741Y-65872419D02*
X95780074Y-64872419D01*
X95780074Y-64872419D02*
X96113407Y-65872419D01*
X96303884Y-65205752D02*
X96684836Y-65205752D01*
X96446741Y-64872419D02*
X96446741Y-65729561D01*
X96446741Y-65729561D02*
X96494360Y-65824800D01*
X96494360Y-65824800D02*
X96589598Y-65872419D01*
X96589598Y-65872419D02*
X96684836Y-65872419D01*
X96922932Y-65205752D02*
X97161027Y-65872419D01*
X97399122Y-65205752D02*
X97161027Y-65872419D01*
X97161027Y-65872419D02*
X97065789Y-66110514D01*
X97065789Y-66110514D02*
X97018170Y-66158133D01*
X97018170Y-66158133D02*
X96922932Y-66205752D01*
X97732456Y-65824800D02*
X97827694Y-65872419D01*
X97827694Y-65872419D02*
X98018170Y-65872419D01*
X98018170Y-65872419D02*
X98113408Y-65824800D01*
X98113408Y-65824800D02*
X98161027Y-65729561D01*
X98161027Y-65729561D02*
X98161027Y-65681942D01*
X98161027Y-65681942D02*
X98113408Y-65586704D01*
X98113408Y-65586704D02*
X98018170Y-65539085D01*
X98018170Y-65539085D02*
X97875313Y-65539085D01*
X97875313Y-65539085D02*
X97780075Y-65491466D01*
X97780075Y-65491466D02*
X97732456Y-65396228D01*
X97732456Y-65396228D02*
X97732456Y-65348609D01*
X97732456Y-65348609D02*
X97780075Y-65253371D01*
X97780075Y-65253371D02*
X97875313Y-65205752D01*
X97875313Y-65205752D02*
X98018170Y-65205752D01*
X98018170Y-65205752D02*
X98113408Y-65253371D01*
X98970551Y-65824800D02*
X98875313Y-65872419D01*
X98875313Y-65872419D02*
X98684837Y-65872419D01*
X98684837Y-65872419D02*
X98589599Y-65824800D01*
X98589599Y-65824800D02*
X98541980Y-65729561D01*
X98541980Y-65729561D02*
X98541980Y-65348609D01*
X98541980Y-65348609D02*
X98589599Y-65253371D01*
X98589599Y-65253371D02*
X98684837Y-65205752D01*
X98684837Y-65205752D02*
X98875313Y-65205752D01*
X98875313Y-65205752D02*
X98970551Y-65253371D01*
X98970551Y-65253371D02*
X99018170Y-65348609D01*
X99018170Y-65348609D02*
X99018170Y-65443847D01*
X99018170Y-65443847D02*
X98541980Y-65539085D01*
X99446742Y-65872419D02*
X99446742Y-64872419D01*
X99541980Y-65491466D02*
X99827694Y-65872419D01*
X99827694Y-65205752D02*
X99446742Y-65586704D01*
D11*
X108531905Y-137994819D02*
X108531905Y-136994819D01*
X108531905Y-136994819D02*
X108770000Y-136994819D01*
X108770000Y-136994819D02*
X108912857Y-137042438D01*
X108912857Y-137042438D02*
X109008095Y-137137676D01*
X109008095Y-137137676D02*
X109055714Y-137232914D01*
X109055714Y-137232914D02*
X109103333Y-137423390D01*
X109103333Y-137423390D02*
X109103333Y-137566247D01*
X109103333Y-137566247D02*
X109055714Y-137756723D01*
X109055714Y-137756723D02*
X109008095Y-137851961D01*
X109008095Y-137851961D02*
X108912857Y-137947200D01*
X108912857Y-137947200D02*
X108770000Y-137994819D01*
X108770000Y-137994819D02*
X108531905Y-137994819D01*
X109960476Y-136994819D02*
X109770000Y-136994819D01*
X109770000Y-136994819D02*
X109674762Y-137042438D01*
X109674762Y-137042438D02*
X109627143Y-137090057D01*
X109627143Y-137090057D02*
X109531905Y-137232914D01*
X109531905Y-137232914D02*
X109484286Y-137423390D01*
X109484286Y-137423390D02*
X109484286Y-137804342D01*
X109484286Y-137804342D02*
X109531905Y-137899580D01*
X109531905Y-137899580D02*
X109579524Y-137947200D01*
X109579524Y-137947200D02*
X109674762Y-137994819D01*
X109674762Y-137994819D02*
X109865238Y-137994819D01*
X109865238Y-137994819D02*
X109960476Y-137947200D01*
X109960476Y-137947200D02*
X110008095Y-137899580D01*
X110008095Y-137899580D02*
X110055714Y-137804342D01*
X110055714Y-137804342D02*
X110055714Y-137566247D01*
X110055714Y-137566247D02*
X110008095Y-137471009D01*
X110008095Y-137471009D02*
X109960476Y-137423390D01*
X109960476Y-137423390D02*
X109865238Y-137375771D01*
X109865238Y-137375771D02*
X109674762Y-137375771D01*
X109674762Y-137375771D02*
X109579524Y-137423390D01*
X109579524Y-137423390D02*
X109531905Y-137471009D01*
X109531905Y-137471009D02*
X109484286Y-137566247D01*
X108261905Y-58994819D02*
X108261905Y-57994819D01*
X108261905Y-57994819D02*
X108500000Y-57994819D01*
X108500000Y-57994819D02*
X108642857Y-58042438D01*
X108642857Y-58042438D02*
X108738095Y-58137676D01*
X108738095Y-58137676D02*
X108785714Y-58232914D01*
X108785714Y-58232914D02*
X108833333Y-58423390D01*
X108833333Y-58423390D02*
X108833333Y-58566247D01*
X108833333Y-58566247D02*
X108785714Y-58756723D01*
X108785714Y-58756723D02*
X108738095Y-58851961D01*
X108738095Y-58851961D02*
X108642857Y-58947200D01*
X108642857Y-58947200D02*
X108500000Y-58994819D01*
X108500000Y-58994819D02*
X108261905Y-58994819D01*
X109785714Y-58994819D02*
X109214286Y-58994819D01*
X109500000Y-58994819D02*
X109500000Y-57994819D01*
X109500000Y-57994819D02*
X109404762Y-58137676D01*
X109404762Y-58137676D02*
X109309524Y-58232914D01*
X109309524Y-58232914D02*
X109214286Y-58280533D01*
X108243095Y-113314819D02*
X108243095Y-114124342D01*
X108243095Y-114124342D02*
X108290714Y-114219580D01*
X108290714Y-114219580D02*
X108338333Y-114267200D01*
X108338333Y-114267200D02*
X108433571Y-114314819D01*
X108433571Y-114314819D02*
X108624047Y-114314819D01*
X108624047Y-114314819D02*
X108719285Y-114267200D01*
X108719285Y-114267200D02*
X108766904Y-114219580D01*
X108766904Y-114219580D02*
X108814523Y-114124342D01*
X108814523Y-114124342D02*
X108814523Y-113314819D01*
X109814523Y-114314819D02*
X109243095Y-114314819D01*
X109528809Y-114314819D02*
X109528809Y-113314819D01*
X109528809Y-113314819D02*
X109433571Y-113457676D01*
X109433571Y-113457676D02*
X109338333Y-113552914D01*
X109338333Y-113552914D02*
X109243095Y-113600533D01*
X80261905Y-126994819D02*
X80261905Y-125994819D01*
X80261905Y-125994819D02*
X80500000Y-125994819D01*
X80500000Y-125994819D02*
X80642857Y-126042438D01*
X80642857Y-126042438D02*
X80738095Y-126137676D01*
X80738095Y-126137676D02*
X80785714Y-126232914D01*
X80785714Y-126232914D02*
X80833333Y-126423390D01*
X80833333Y-126423390D02*
X80833333Y-126566247D01*
X80833333Y-126566247D02*
X80785714Y-126756723D01*
X80785714Y-126756723D02*
X80738095Y-126851961D01*
X80738095Y-126851961D02*
X80642857Y-126947200D01*
X80642857Y-126947200D02*
X80500000Y-126994819D01*
X80500000Y-126994819D02*
X80261905Y-126994819D01*
X81166667Y-125994819D02*
X81833333Y-125994819D01*
X81833333Y-125994819D02*
X81404762Y-126994819D01*
X95404761Y-94067319D02*
X95071428Y-93591128D01*
X94833333Y-94067319D02*
X94833333Y-93067319D01*
X94833333Y-93067319D02*
X95214285Y-93067319D01*
X95214285Y-93067319D02*
X95309523Y-93114938D01*
X95309523Y-93114938D02*
X95357142Y-93162557D01*
X95357142Y-93162557D02*
X95404761Y-93257795D01*
X95404761Y-93257795D02*
X95404761Y-93400652D01*
X95404761Y-93400652D02*
X95357142Y-93495890D01*
X95357142Y-93495890D02*
X95309523Y-93543509D01*
X95309523Y-93543509D02*
X95214285Y-93591128D01*
X95214285Y-93591128D02*
X94833333Y-93591128D01*
X95690476Y-93067319D02*
X96023809Y-94067319D01*
X96023809Y-94067319D02*
X96357142Y-93067319D01*
X97214285Y-94067319D02*
X96642857Y-94067319D01*
X96928571Y-94067319D02*
X96928571Y-93067319D01*
X96928571Y-93067319D02*
X96833333Y-93210176D01*
X96833333Y-93210176D02*
X96738095Y-93305414D01*
X96738095Y-93305414D02*
X96642857Y-93353033D01*
X94878221Y-103359580D02*
X94830602Y-103407200D01*
X94830602Y-103407200D02*
X94687745Y-103454819D01*
X94687745Y-103454819D02*
X94592507Y-103454819D01*
X94592507Y-103454819D02*
X94449650Y-103407200D01*
X94449650Y-103407200D02*
X94354412Y-103311961D01*
X94354412Y-103311961D02*
X94306793Y-103216723D01*
X94306793Y-103216723D02*
X94259174Y-103026247D01*
X94259174Y-103026247D02*
X94259174Y-102883390D01*
X94259174Y-102883390D02*
X94306793Y-102692914D01*
X94306793Y-102692914D02*
X94354412Y-102597676D01*
X94354412Y-102597676D02*
X94449650Y-102502438D01*
X94449650Y-102502438D02*
X94592507Y-102454819D01*
X94592507Y-102454819D02*
X94687745Y-102454819D01*
X94687745Y-102454819D02*
X94830602Y-102502438D01*
X94830602Y-102502438D02*
X94878221Y-102550057D01*
X95735364Y-102788152D02*
X95735364Y-103454819D01*
X95497269Y-102407200D02*
X95259174Y-103121485D01*
X95259174Y-103121485D02*
X95878221Y-103121485D01*
X99166666Y-116574819D02*
X99166666Y-117289104D01*
X99166666Y-117289104D02*
X99119047Y-117431961D01*
X99119047Y-117431961D02*
X99023809Y-117527200D01*
X99023809Y-117527200D02*
X98880952Y-117574819D01*
X98880952Y-117574819D02*
X98785714Y-117574819D01*
X99595238Y-116670057D02*
X99642857Y-116622438D01*
X99642857Y-116622438D02*
X99738095Y-116574819D01*
X99738095Y-116574819D02*
X99976190Y-116574819D01*
X99976190Y-116574819D02*
X100071428Y-116622438D01*
X100071428Y-116622438D02*
X100119047Y-116670057D01*
X100119047Y-116670057D02*
X100166666Y-116765295D01*
X100166666Y-116765295D02*
X100166666Y-116860533D01*
X100166666Y-116860533D02*
X100119047Y-117003390D01*
X100119047Y-117003390D02*
X99547619Y-117574819D01*
X99547619Y-117574819D02*
X100166666Y-117574819D01*
X146991905Y-88994819D02*
X146991905Y-87994819D01*
X146991905Y-87994819D02*
X147230000Y-87994819D01*
X147230000Y-87994819D02*
X147372857Y-88042438D01*
X147372857Y-88042438D02*
X147468095Y-88137676D01*
X147468095Y-88137676D02*
X147515714Y-88232914D01*
X147515714Y-88232914D02*
X147563333Y-88423390D01*
X147563333Y-88423390D02*
X147563333Y-88566247D01*
X147563333Y-88566247D02*
X147515714Y-88756723D01*
X147515714Y-88756723D02*
X147468095Y-88851961D01*
X147468095Y-88851961D02*
X147372857Y-88947200D01*
X147372857Y-88947200D02*
X147230000Y-88994819D01*
X147230000Y-88994819D02*
X146991905Y-88994819D01*
X147896667Y-87994819D02*
X148515714Y-87994819D01*
X148515714Y-87994819D02*
X148182381Y-88375771D01*
X148182381Y-88375771D02*
X148325238Y-88375771D01*
X148325238Y-88375771D02*
X148420476Y-88423390D01*
X148420476Y-88423390D02*
X148468095Y-88471009D01*
X148468095Y-88471009D02*
X148515714Y-88566247D01*
X148515714Y-88566247D02*
X148515714Y-88804342D01*
X148515714Y-88804342D02*
X148468095Y-88899580D01*
X148468095Y-88899580D02*
X148420476Y-88947200D01*
X148420476Y-88947200D02*
X148325238Y-88994819D01*
X148325238Y-88994819D02*
X148039524Y-88994819D01*
X148039524Y-88994819D02*
X147944286Y-88947200D01*
X147944286Y-88947200D02*
X147896667Y-88899580D01*
X107928095Y-100344819D02*
X107928095Y-101154342D01*
X107928095Y-101154342D02*
X107975714Y-101249580D01*
X107975714Y-101249580D02*
X108023333Y-101297200D01*
X108023333Y-101297200D02*
X108118571Y-101344819D01*
X108118571Y-101344819D02*
X108309047Y-101344819D01*
X108309047Y-101344819D02*
X108404285Y-101297200D01*
X108404285Y-101297200D02*
X108451904Y-101249580D01*
X108451904Y-101249580D02*
X108499523Y-101154342D01*
X108499523Y-101154342D02*
X108499523Y-100344819D01*
X108928095Y-100440057D02*
X108975714Y-100392438D01*
X108975714Y-100392438D02*
X109070952Y-100344819D01*
X109070952Y-100344819D02*
X109309047Y-100344819D01*
X109309047Y-100344819D02*
X109404285Y-100392438D01*
X109404285Y-100392438D02*
X109451904Y-100440057D01*
X109451904Y-100440057D02*
X109499523Y-100535295D01*
X109499523Y-100535295D02*
X109499523Y-100630533D01*
X109499523Y-100630533D02*
X109451904Y-100773390D01*
X109451904Y-100773390D02*
X108880476Y-101344819D01*
X108880476Y-101344819D02*
X109499523Y-101344819D01*
X112500000Y-108454819D02*
X112500000Y-108692914D01*
X112261905Y-108597676D02*
X112500000Y-108692914D01*
X112500000Y-108692914D02*
X112738095Y-108597676D01*
X112357143Y-108883390D02*
X112500000Y-108692914D01*
X112500000Y-108692914D02*
X112642857Y-108883390D01*
X96333333Y-82859580D02*
X96285714Y-82907200D01*
X96285714Y-82907200D02*
X96142857Y-82954819D01*
X96142857Y-82954819D02*
X96047619Y-82954819D01*
X96047619Y-82954819D02*
X95904762Y-82907200D01*
X95904762Y-82907200D02*
X95809524Y-82811961D01*
X95809524Y-82811961D02*
X95761905Y-82716723D01*
X95761905Y-82716723D02*
X95714286Y-82526247D01*
X95714286Y-82526247D02*
X95714286Y-82383390D01*
X95714286Y-82383390D02*
X95761905Y-82192914D01*
X95761905Y-82192914D02*
X95809524Y-82097676D01*
X95809524Y-82097676D02*
X95904762Y-82002438D01*
X95904762Y-82002438D02*
X96047619Y-81954819D01*
X96047619Y-81954819D02*
X96142857Y-81954819D01*
X96142857Y-81954819D02*
X96285714Y-82002438D01*
X96285714Y-82002438D02*
X96333333Y-82050057D01*
X96666667Y-81954819D02*
X97285714Y-81954819D01*
X97285714Y-81954819D02*
X96952381Y-82335771D01*
X96952381Y-82335771D02*
X97095238Y-82335771D01*
X97095238Y-82335771D02*
X97190476Y-82383390D01*
X97190476Y-82383390D02*
X97238095Y-82431009D01*
X97238095Y-82431009D02*
X97285714Y-82526247D01*
X97285714Y-82526247D02*
X97285714Y-82764342D01*
X97285714Y-82764342D02*
X97238095Y-82859580D01*
X97238095Y-82859580D02*
X97190476Y-82907200D01*
X97190476Y-82907200D02*
X97095238Y-82954819D01*
X97095238Y-82954819D02*
X96809524Y-82954819D01*
X96809524Y-82954819D02*
X96714286Y-82907200D01*
X96714286Y-82907200D02*
X96666667Y-82859580D01*
X135761905Y-125954819D02*
X135761905Y-124954819D01*
X135761905Y-124954819D02*
X136000000Y-124954819D01*
X136000000Y-124954819D02*
X136142857Y-125002438D01*
X136142857Y-125002438D02*
X136238095Y-125097676D01*
X136238095Y-125097676D02*
X136285714Y-125192914D01*
X136285714Y-125192914D02*
X136333333Y-125383390D01*
X136333333Y-125383390D02*
X136333333Y-125526247D01*
X136333333Y-125526247D02*
X136285714Y-125716723D01*
X136285714Y-125716723D02*
X136238095Y-125811961D01*
X136238095Y-125811961D02*
X136142857Y-125907200D01*
X136142857Y-125907200D02*
X136000000Y-125954819D01*
X136000000Y-125954819D02*
X135761905Y-125954819D01*
X137238095Y-124954819D02*
X136761905Y-124954819D01*
X136761905Y-124954819D02*
X136714286Y-125431009D01*
X136714286Y-125431009D02*
X136761905Y-125383390D01*
X136761905Y-125383390D02*
X136857143Y-125335771D01*
X136857143Y-125335771D02*
X137095238Y-125335771D01*
X137095238Y-125335771D02*
X137190476Y-125383390D01*
X137190476Y-125383390D02*
X137238095Y-125431009D01*
X137238095Y-125431009D02*
X137285714Y-125526247D01*
X137285714Y-125526247D02*
X137285714Y-125764342D01*
X137285714Y-125764342D02*
X137238095Y-125859580D01*
X137238095Y-125859580D02*
X137190476Y-125907200D01*
X137190476Y-125907200D02*
X137095238Y-125954819D01*
X137095238Y-125954819D02*
X136857143Y-125954819D01*
X136857143Y-125954819D02*
X136761905Y-125907200D01*
X136761905Y-125907200D02*
X136714286Y-125859580D01*
X70761905Y-88494819D02*
X70761905Y-87494819D01*
X70761905Y-87494819D02*
X71000000Y-87494819D01*
X71000000Y-87494819D02*
X71142857Y-87542438D01*
X71142857Y-87542438D02*
X71238095Y-87637676D01*
X71238095Y-87637676D02*
X71285714Y-87732914D01*
X71285714Y-87732914D02*
X71333333Y-87923390D01*
X71333333Y-87923390D02*
X71333333Y-88066247D01*
X71333333Y-88066247D02*
X71285714Y-88256723D01*
X71285714Y-88256723D02*
X71238095Y-88351961D01*
X71238095Y-88351961D02*
X71142857Y-88447200D01*
X71142857Y-88447200D02*
X71000000Y-88494819D01*
X71000000Y-88494819D02*
X70761905Y-88494819D01*
X71809524Y-88494819D02*
X72000000Y-88494819D01*
X72000000Y-88494819D02*
X72095238Y-88447200D01*
X72095238Y-88447200D02*
X72142857Y-88399580D01*
X72142857Y-88399580D02*
X72238095Y-88256723D01*
X72238095Y-88256723D02*
X72285714Y-88066247D01*
X72285714Y-88066247D02*
X72285714Y-87685295D01*
X72285714Y-87685295D02*
X72238095Y-87590057D01*
X72238095Y-87590057D02*
X72190476Y-87542438D01*
X72190476Y-87542438D02*
X72095238Y-87494819D01*
X72095238Y-87494819D02*
X71904762Y-87494819D01*
X71904762Y-87494819D02*
X71809524Y-87542438D01*
X71809524Y-87542438D02*
X71761905Y-87590057D01*
X71761905Y-87590057D02*
X71714286Y-87685295D01*
X71714286Y-87685295D02*
X71714286Y-87923390D01*
X71714286Y-87923390D02*
X71761905Y-88018628D01*
X71761905Y-88018628D02*
X71809524Y-88066247D01*
X71809524Y-88066247D02*
X71904762Y-88113866D01*
X71904762Y-88113866D02*
X72095238Y-88113866D01*
X72095238Y-88113866D02*
X72190476Y-88066247D01*
X72190476Y-88066247D02*
X72238095Y-88018628D01*
X72238095Y-88018628D02*
X72285714Y-87923390D01*
X79785714Y-70994819D02*
X79785714Y-69994819D01*
X79785714Y-69994819D02*
X80023809Y-69994819D01*
X80023809Y-69994819D02*
X80166666Y-70042438D01*
X80166666Y-70042438D02*
X80261904Y-70137676D01*
X80261904Y-70137676D02*
X80309523Y-70232914D01*
X80309523Y-70232914D02*
X80357142Y-70423390D01*
X80357142Y-70423390D02*
X80357142Y-70566247D01*
X80357142Y-70566247D02*
X80309523Y-70756723D01*
X80309523Y-70756723D02*
X80261904Y-70851961D01*
X80261904Y-70851961D02*
X80166666Y-70947200D01*
X80166666Y-70947200D02*
X80023809Y-70994819D01*
X80023809Y-70994819D02*
X79785714Y-70994819D01*
X81309523Y-70994819D02*
X80738095Y-70994819D01*
X81023809Y-70994819D02*
X81023809Y-69994819D01*
X81023809Y-69994819D02*
X80928571Y-70137676D01*
X80928571Y-70137676D02*
X80833333Y-70232914D01*
X80833333Y-70232914D02*
X80738095Y-70280533D01*
X81928571Y-69994819D02*
X82023809Y-69994819D01*
X82023809Y-69994819D02*
X82119047Y-70042438D01*
X82119047Y-70042438D02*
X82166666Y-70090057D01*
X82166666Y-70090057D02*
X82214285Y-70185295D01*
X82214285Y-70185295D02*
X82261904Y-70375771D01*
X82261904Y-70375771D02*
X82261904Y-70613866D01*
X82261904Y-70613866D02*
X82214285Y-70804342D01*
X82214285Y-70804342D02*
X82166666Y-70899580D01*
X82166666Y-70899580D02*
X82119047Y-70947200D01*
X82119047Y-70947200D02*
X82023809Y-70994819D01*
X82023809Y-70994819D02*
X81928571Y-70994819D01*
X81928571Y-70994819D02*
X81833333Y-70947200D01*
X81833333Y-70947200D02*
X81785714Y-70899580D01*
X81785714Y-70899580D02*
X81738095Y-70804342D01*
X81738095Y-70804342D02*
X81690476Y-70613866D01*
X81690476Y-70613866D02*
X81690476Y-70375771D01*
X81690476Y-70375771D02*
X81738095Y-70185295D01*
X81738095Y-70185295D02*
X81785714Y-70090057D01*
X81785714Y-70090057D02*
X81833333Y-70042438D01*
X81833333Y-70042438D02*
X81928571Y-69994819D01*
X136261905Y-70994819D02*
X136261905Y-69994819D01*
X136261905Y-69994819D02*
X136500000Y-69994819D01*
X136500000Y-69994819D02*
X136642857Y-70042438D01*
X136642857Y-70042438D02*
X136738095Y-70137676D01*
X136738095Y-70137676D02*
X136785714Y-70232914D01*
X136785714Y-70232914D02*
X136833333Y-70423390D01*
X136833333Y-70423390D02*
X136833333Y-70566247D01*
X136833333Y-70566247D02*
X136785714Y-70756723D01*
X136785714Y-70756723D02*
X136738095Y-70851961D01*
X136738095Y-70851961D02*
X136642857Y-70947200D01*
X136642857Y-70947200D02*
X136500000Y-70994819D01*
X136500000Y-70994819D02*
X136261905Y-70994819D01*
X137214286Y-70090057D02*
X137261905Y-70042438D01*
X137261905Y-70042438D02*
X137357143Y-69994819D01*
X137357143Y-69994819D02*
X137595238Y-69994819D01*
X137595238Y-69994819D02*
X137690476Y-70042438D01*
X137690476Y-70042438D02*
X137738095Y-70090057D01*
X137738095Y-70090057D02*
X137785714Y-70185295D01*
X137785714Y-70185295D02*
X137785714Y-70280533D01*
X137785714Y-70280533D02*
X137738095Y-70423390D01*
X137738095Y-70423390D02*
X137166667Y-70994819D01*
X137166667Y-70994819D02*
X137785714Y-70994819D01*
X96333333Y-89764819D02*
X96000000Y-89288628D01*
X95761905Y-89764819D02*
X95761905Y-88764819D01*
X95761905Y-88764819D02*
X96142857Y-88764819D01*
X96142857Y-88764819D02*
X96238095Y-88812438D01*
X96238095Y-88812438D02*
X96285714Y-88860057D01*
X96285714Y-88860057D02*
X96333333Y-88955295D01*
X96333333Y-88955295D02*
X96333333Y-89098152D01*
X96333333Y-89098152D02*
X96285714Y-89193390D01*
X96285714Y-89193390D02*
X96238095Y-89241009D01*
X96238095Y-89241009D02*
X96142857Y-89288628D01*
X96142857Y-89288628D02*
X95761905Y-89288628D01*
X96666667Y-88764819D02*
X97285714Y-88764819D01*
X97285714Y-88764819D02*
X96952381Y-89145771D01*
X96952381Y-89145771D02*
X97095238Y-89145771D01*
X97095238Y-89145771D02*
X97190476Y-89193390D01*
X97190476Y-89193390D02*
X97238095Y-89241009D01*
X97238095Y-89241009D02*
X97285714Y-89336247D01*
X97285714Y-89336247D02*
X97285714Y-89574342D01*
X97285714Y-89574342D02*
X97238095Y-89669580D01*
X97238095Y-89669580D02*
X97190476Y-89717200D01*
X97190476Y-89717200D02*
X97095238Y-89764819D01*
X97095238Y-89764819D02*
X96809524Y-89764819D01*
X96809524Y-89764819D02*
X96714286Y-89717200D01*
X96714286Y-89717200D02*
X96666667Y-89669580D01*
X114299819Y-139833333D02*
X115014104Y-139833333D01*
X115014104Y-139833333D02*
X115156961Y-139880952D01*
X115156961Y-139880952D02*
X115252200Y-139976190D01*
X115252200Y-139976190D02*
X115299819Y-140119047D01*
X115299819Y-140119047D02*
X115299819Y-140214285D01*
X115299819Y-138833333D02*
X115299819Y-139404761D01*
X115299819Y-139119047D02*
X114299819Y-139119047D01*
X114299819Y-139119047D02*
X114442676Y-139214285D01*
X114442676Y-139214285D02*
X114537914Y-139309523D01*
X114537914Y-139309523D02*
X114585533Y-139404761D01*
X121333333Y-134264819D02*
X121000000Y-133788628D01*
X120761905Y-134264819D02*
X120761905Y-133264819D01*
X120761905Y-133264819D02*
X121142857Y-133264819D01*
X121142857Y-133264819D02*
X121238095Y-133312438D01*
X121238095Y-133312438D02*
X121285714Y-133360057D01*
X121285714Y-133360057D02*
X121333333Y-133455295D01*
X121333333Y-133455295D02*
X121333333Y-133598152D01*
X121333333Y-133598152D02*
X121285714Y-133693390D01*
X121285714Y-133693390D02*
X121238095Y-133741009D01*
X121238095Y-133741009D02*
X121142857Y-133788628D01*
X121142857Y-133788628D02*
X120761905Y-133788628D01*
X122190476Y-133598152D02*
X122190476Y-134264819D01*
X121952381Y-133217200D02*
X121714286Y-133931485D01*
X121714286Y-133931485D02*
X122333333Y-133931485D01*
X146761905Y-109494819D02*
X146761905Y-108494819D01*
X146761905Y-108494819D02*
X147000000Y-108494819D01*
X147000000Y-108494819D02*
X147142857Y-108542438D01*
X147142857Y-108542438D02*
X147238095Y-108637676D01*
X147238095Y-108637676D02*
X147285714Y-108732914D01*
X147285714Y-108732914D02*
X147333333Y-108923390D01*
X147333333Y-108923390D02*
X147333333Y-109066247D01*
X147333333Y-109066247D02*
X147285714Y-109256723D01*
X147285714Y-109256723D02*
X147238095Y-109351961D01*
X147238095Y-109351961D02*
X147142857Y-109447200D01*
X147142857Y-109447200D02*
X147000000Y-109494819D01*
X147000000Y-109494819D02*
X146761905Y-109494819D01*
X148190476Y-108828152D02*
X148190476Y-109494819D01*
X147952381Y-108447200D02*
X147714286Y-109161485D01*
X147714286Y-109161485D02*
X148333333Y-109161485D01*
X70491905Y-108994819D02*
X70491905Y-107994819D01*
X70491905Y-107994819D02*
X70730000Y-107994819D01*
X70730000Y-107994819D02*
X70872857Y-108042438D01*
X70872857Y-108042438D02*
X70968095Y-108137676D01*
X70968095Y-108137676D02*
X71015714Y-108232914D01*
X71015714Y-108232914D02*
X71063333Y-108423390D01*
X71063333Y-108423390D02*
X71063333Y-108566247D01*
X71063333Y-108566247D02*
X71015714Y-108756723D01*
X71015714Y-108756723D02*
X70968095Y-108851961D01*
X70968095Y-108851961D02*
X70872857Y-108947200D01*
X70872857Y-108947200D02*
X70730000Y-108994819D01*
X70730000Y-108994819D02*
X70491905Y-108994819D01*
X71634762Y-108423390D02*
X71539524Y-108375771D01*
X71539524Y-108375771D02*
X71491905Y-108328152D01*
X71491905Y-108328152D02*
X71444286Y-108232914D01*
X71444286Y-108232914D02*
X71444286Y-108185295D01*
X71444286Y-108185295D02*
X71491905Y-108090057D01*
X71491905Y-108090057D02*
X71539524Y-108042438D01*
X71539524Y-108042438D02*
X71634762Y-107994819D01*
X71634762Y-107994819D02*
X71825238Y-107994819D01*
X71825238Y-107994819D02*
X71920476Y-108042438D01*
X71920476Y-108042438D02*
X71968095Y-108090057D01*
X71968095Y-108090057D02*
X72015714Y-108185295D01*
X72015714Y-108185295D02*
X72015714Y-108232914D01*
X72015714Y-108232914D02*
X71968095Y-108328152D01*
X71968095Y-108328152D02*
X71920476Y-108375771D01*
X71920476Y-108375771D02*
X71825238Y-108423390D01*
X71825238Y-108423390D02*
X71634762Y-108423390D01*
X71634762Y-108423390D02*
X71539524Y-108471009D01*
X71539524Y-108471009D02*
X71491905Y-108518628D01*
X71491905Y-108518628D02*
X71444286Y-108613866D01*
X71444286Y-108613866D02*
X71444286Y-108804342D01*
X71444286Y-108804342D02*
X71491905Y-108899580D01*
X71491905Y-108899580D02*
X71539524Y-108947200D01*
X71539524Y-108947200D02*
X71634762Y-108994819D01*
X71634762Y-108994819D02*
X71825238Y-108994819D01*
X71825238Y-108994819D02*
X71920476Y-108947200D01*
X71920476Y-108947200D02*
X71968095Y-108899580D01*
X71968095Y-108899580D02*
X72015714Y-108804342D01*
X72015714Y-108804342D02*
X72015714Y-108613866D01*
X72015714Y-108613866D02*
X71968095Y-108518628D01*
X71968095Y-108518628D02*
X71920476Y-108471009D01*
X71920476Y-108471009D02*
X71825238Y-108423390D01*
D12*
%TO.C,D6*%
X107710000Y-139264000D02*
X107710000Y-139420000D01*
X107710000Y-141580000D02*
X107710000Y-141736000D01*
X107710000Y-139264484D02*
G75*
G02*
X110941437Y-139420000I1560000J-1235516D01*
G01*
X108229039Y-139420000D02*
G75*
G02*
X110310961Y-139420000I1040961J-1080000D01*
G01*
X110310961Y-141580000D02*
G75*
G02*
X108229039Y-141580000I-1040961J1080000D01*
G01*
X110941437Y-141580000D02*
G75*
G02*
X107710000Y-141735516I-1671437J1080000D01*
G01*
%TO.C,D1*%
X107440000Y-60264000D02*
X107440000Y-60420000D01*
X107440000Y-62580000D02*
X107440000Y-62736000D01*
X107440000Y-60264484D02*
G75*
G02*
X110671437Y-60420000I1560000J-1235516D01*
G01*
X107959039Y-60420000D02*
G75*
G02*
X110040961Y-60420000I1040961J-1080000D01*
G01*
X110040961Y-62580000D02*
G75*
G02*
X107959039Y-62580000I-1040961J1080000D01*
G01*
X110671437Y-62580000D02*
G75*
G02*
X107440000Y-62735516I-1671437J1080000D01*
G01*
%TO.C,U1*%
X106355000Y-114860000D02*
X106355000Y-125140000D01*
X106355000Y-125140000D02*
X111655000Y-125140000D01*
X108005000Y-114860000D02*
X106355000Y-114860000D01*
X111655000Y-114860000D02*
X110005000Y-114860000D01*
X111655000Y-125140000D02*
X111655000Y-114860000D01*
X110005000Y-114860000D02*
G75*
G02*
X108005000Y-114860000I-1000000J0D01*
G01*
%TO.C,D7*%
X79440000Y-128264000D02*
X79440000Y-128420000D01*
X79440000Y-130580000D02*
X79440000Y-130736000D01*
X79440000Y-128264484D02*
G75*
G02*
X82671437Y-128420000I1560000J-1235516D01*
G01*
X79959039Y-128420000D02*
G75*
G02*
X82040961Y-128420000I1040961J-1080000D01*
G01*
X82040961Y-130580000D02*
G75*
G02*
X79959039Y-130580000I-1040961J1080000D01*
G01*
X82671437Y-130580000D02*
G75*
G02*
X79440000Y-130735516I-1671437J1080000D01*
G01*
%TO.C,RV1*%
X91040000Y-94502500D02*
X91040000Y-99722500D01*
X91040000Y-94502500D02*
X93160000Y-94502500D01*
X91040000Y-99722500D02*
X100960000Y-99722500D01*
X93860000Y-94502500D02*
X100960000Y-94502500D01*
X100960000Y-94502500D02*
X100960000Y-99722500D01*
X93460000Y-94502500D02*
X93220000Y-94172500D01*
X93700000Y-94172500D01*
X93460000Y-94502500D01*
G36*
X93460000Y-94502500D02*
G01*
X93220000Y-94172500D01*
X93700000Y-94172500D01*
X93460000Y-94502500D01*
G37*
%TO.C,C4*%
X93240113Y-101525000D02*
X93740113Y-101525000D01*
X93490113Y-101275000D02*
X93490113Y-101775000D01*
X96044888Y-100420000D02*
X96044888Y-101960000D01*
X96044888Y-104040000D02*
X96044888Y-105580000D01*
X96084888Y-100420000D02*
X96084888Y-101960000D01*
X96084888Y-104040000D02*
X96084888Y-105580000D01*
X96124888Y-100421000D02*
X96124888Y-101960000D01*
X96124888Y-104040000D02*
X96124888Y-105579000D01*
X96164888Y-100423000D02*
X96164888Y-101960000D01*
X96164888Y-104040000D02*
X96164888Y-105577000D01*
X96204888Y-100425000D02*
X96204888Y-101960000D01*
X96204888Y-104040000D02*
X96204888Y-105575000D01*
X96244888Y-100428000D02*
X96244888Y-101960000D01*
X96244888Y-104040000D02*
X96244888Y-105572000D01*
X96284888Y-100431000D02*
X96284888Y-101960000D01*
X96284888Y-104040000D02*
X96284888Y-105569000D01*
X96324888Y-100435000D02*
X96324888Y-101960000D01*
X96324888Y-104040000D02*
X96324888Y-105565000D01*
X96364888Y-100440000D02*
X96364888Y-101960000D01*
X96364888Y-104040000D02*
X96364888Y-105560000D01*
X96404888Y-100445000D02*
X96404888Y-101960000D01*
X96404888Y-104040000D02*
X96404888Y-105555000D01*
X96444888Y-100451000D02*
X96444888Y-101960000D01*
X96444888Y-104040000D02*
X96444888Y-105549000D01*
X96484888Y-100457000D02*
X96484888Y-101960000D01*
X96484888Y-104040000D02*
X96484888Y-105543000D01*
X96524888Y-100464000D02*
X96524888Y-101960000D01*
X96524888Y-104040000D02*
X96524888Y-105536000D01*
X96564888Y-100472000D02*
X96564888Y-101960000D01*
X96564888Y-104040000D02*
X96564888Y-105528000D01*
X96604888Y-100481000D02*
X96604888Y-101960000D01*
X96604888Y-104040000D02*
X96604888Y-105519000D01*
X96644888Y-100490000D02*
X96644888Y-101960000D01*
X96644888Y-104040000D02*
X96644888Y-105510000D01*
X96684888Y-100499000D02*
X96684888Y-101960000D01*
X96684888Y-104040000D02*
X96684888Y-105501000D01*
X96724888Y-100510000D02*
X96724888Y-101960000D01*
X96724888Y-104040000D02*
X96724888Y-105490000D01*
X96764888Y-100521000D02*
X96764888Y-101960000D01*
X96764888Y-104040000D02*
X96764888Y-105479000D01*
X96804888Y-100533000D02*
X96804888Y-101960000D01*
X96804888Y-104040000D02*
X96804888Y-105467000D01*
X96844888Y-100545000D02*
X96844888Y-101960000D01*
X96844888Y-104040000D02*
X96844888Y-105455000D01*
X96884888Y-100558000D02*
X96884888Y-101960000D01*
X96884888Y-104040000D02*
X96884888Y-105442000D01*
X96924888Y-100572000D02*
X96924888Y-101960000D01*
X96924888Y-104040000D02*
X96924888Y-105428000D01*
X96964888Y-100587000D02*
X96964888Y-101960000D01*
X96964888Y-104040000D02*
X96964888Y-105413000D01*
X97004888Y-100602000D02*
X97004888Y-101960000D01*
X97004888Y-104040000D02*
X97004888Y-105398000D01*
X97044888Y-100618000D02*
X97044888Y-101960000D01*
X97044888Y-104040000D02*
X97044888Y-105382000D01*
X97084888Y-100635000D02*
X97084888Y-101960000D01*
X97084888Y-104040000D02*
X97084888Y-105365000D01*
X97124888Y-100653000D02*
X97124888Y-101960000D01*
X97124888Y-104040000D02*
X97124888Y-105347000D01*
X97164888Y-100671000D02*
X97164888Y-101960000D01*
X97164888Y-104040000D02*
X97164888Y-105329000D01*
X97204888Y-100691000D02*
X97204888Y-101960000D01*
X97204888Y-104040000D02*
X97204888Y-105309000D01*
X97244888Y-100711000D02*
X97244888Y-101960000D01*
X97244888Y-104040000D02*
X97244888Y-105289000D01*
X97284888Y-100732000D02*
X97284888Y-101960000D01*
X97284888Y-104040000D02*
X97284888Y-105268000D01*
X97324888Y-100754000D02*
X97324888Y-101960000D01*
X97324888Y-104040000D02*
X97324888Y-105246000D01*
X97364888Y-100777000D02*
X97364888Y-101960000D01*
X97364888Y-104040000D02*
X97364888Y-105223000D01*
X97404888Y-100801000D02*
X97404888Y-101960000D01*
X97404888Y-104040000D02*
X97404888Y-105199000D01*
X97444888Y-100825000D02*
X97444888Y-101960000D01*
X97444888Y-104040000D02*
X97444888Y-105175000D01*
X97484888Y-100851000D02*
X97484888Y-101960000D01*
X97484888Y-104040000D02*
X97484888Y-105149000D01*
X97524888Y-100878000D02*
X97524888Y-101960000D01*
X97524888Y-104040000D02*
X97524888Y-105122000D01*
X97564888Y-100906000D02*
X97564888Y-101960000D01*
X97564888Y-104040000D02*
X97564888Y-105094000D01*
X97604888Y-100935000D02*
X97604888Y-101960000D01*
X97604888Y-104040000D02*
X97604888Y-105065000D01*
X97644888Y-100965000D02*
X97644888Y-101960000D01*
X97644888Y-104040000D02*
X97644888Y-105035000D01*
X97684888Y-100997000D02*
X97684888Y-101960000D01*
X97684888Y-104040000D02*
X97684888Y-105003000D01*
X97724888Y-101030000D02*
X97724888Y-101960000D01*
X97724888Y-104040000D02*
X97724888Y-104970000D01*
X97764888Y-101064000D02*
X97764888Y-101960000D01*
X97764888Y-104040000D02*
X97764888Y-104936000D01*
X97804888Y-101099000D02*
X97804888Y-101960000D01*
X97804888Y-104040000D02*
X97804888Y-104901000D01*
X97844888Y-101136000D02*
X97844888Y-101960000D01*
X97844888Y-104040000D02*
X97844888Y-104864000D01*
X97884888Y-101175000D02*
X97884888Y-101960000D01*
X97884888Y-104040000D02*
X97884888Y-104825000D01*
X97924888Y-101215000D02*
X97924888Y-101960000D01*
X97924888Y-104040000D02*
X97924888Y-104785000D01*
X97964888Y-101257000D02*
X97964888Y-101960000D01*
X97964888Y-104040000D02*
X97964888Y-104743000D01*
X98004888Y-101301000D02*
X98004888Y-101960000D01*
X98004888Y-104040000D02*
X98004888Y-104699000D01*
X98044888Y-101348000D02*
X98044888Y-101960000D01*
X98044888Y-104040000D02*
X98044888Y-104652000D01*
X98084888Y-101396000D02*
X98084888Y-104604000D01*
X98124888Y-101447000D02*
X98124888Y-104553000D01*
X98164888Y-101501000D02*
X98164888Y-104499000D01*
X98204888Y-101557000D02*
X98204888Y-104443000D01*
X98244888Y-101617000D02*
X98244888Y-104383000D01*
X98284888Y-101681000D02*
X98284888Y-104319000D01*
X98324888Y-101749000D02*
X98324888Y-104251000D01*
X98364888Y-101823000D02*
X98364888Y-104177000D01*
X98404888Y-101902000D02*
X98404888Y-104098000D01*
X98444888Y-101989000D02*
X98444888Y-104011000D01*
X98484888Y-102086000D02*
X98484888Y-103914000D01*
X98524888Y-102195000D02*
X98524888Y-103805000D01*
X98564888Y-102323000D02*
X98564888Y-103677000D01*
X98604888Y-102483000D02*
X98604888Y-103517000D01*
X98644888Y-102717000D02*
X98644888Y-103283000D01*
X98664888Y-103000000D02*
G75*
G02*
X93424888Y-103000000I-2620000J0D01*
G01*
X93424888Y-103000000D02*
G75*
G02*
X98664888Y-103000000I2620000J0D01*
G01*
%TO.C,J2*%
X98120000Y-118120000D02*
X99500000Y-118120000D01*
X98120000Y-119500000D02*
X98120000Y-118120000D01*
X98120000Y-120770000D02*
X98120000Y-120880000D01*
X98120000Y-120770000D02*
X100880000Y-120770000D01*
X98120000Y-120880000D02*
X100880000Y-120880000D01*
X100880000Y-120770000D02*
X100880000Y-120880000D01*
%TO.C,D3*%
X146170000Y-90264000D02*
X146170000Y-90420000D01*
X146170000Y-92580000D02*
X146170000Y-92736000D01*
X146170000Y-90264484D02*
G75*
G02*
X149401437Y-90420000I1560000J-1235516D01*
G01*
X146689039Y-90420000D02*
G75*
G02*
X148770961Y-90420000I1040961J-1080000D01*
G01*
X148770961Y-92580000D02*
G75*
G02*
X146689039Y-92580000I-1040961J1080000D01*
G01*
X149401437Y-92580000D02*
G75*
G02*
X146170000Y-92735516I-1671437J1080000D01*
G01*
D13*
%TO.C,U2*%
X105388000Y-92980440D02*
X105388000Y-93701431D01*
X105388000Y-95378569D02*
X105388000Y-96241431D01*
X105388000Y-97918569D02*
X105388000Y-98781431D01*
X105388000Y-100458569D02*
X105388000Y-101321431D01*
X105388000Y-102998569D02*
X105388000Y-103861431D01*
X105388000Y-105538569D02*
X105388000Y-106401431D01*
X105388000Y-108078569D02*
X105388000Y-108941431D01*
X105388000Y-110732500D02*
X111992000Y-110732500D01*
X111992000Y-91047500D02*
X105661165Y-91047500D01*
X111992000Y-93701431D02*
X111992000Y-92838569D01*
X111992000Y-96241431D02*
X111992000Y-95378569D01*
X111992000Y-98781431D02*
X111992000Y-97918569D01*
X111992000Y-101321431D02*
X111992000Y-100458569D01*
X111992000Y-103861431D02*
X111992000Y-102998569D01*
X111992000Y-106401431D02*
X111992000Y-105538569D01*
X111992000Y-108941431D02*
X111992000Y-108078569D01*
X108994800Y-91047500D02*
G75*
G02*
X108385200Y-91047500I-304800J0D01*
G01*
D12*
%TO.C,C3*%
X92630000Y-83630000D02*
X100370000Y-83630000D01*
X92630000Y-86370000D02*
X92630000Y-83630000D01*
X100370000Y-83630000D02*
X100370000Y-86370000D01*
X100370000Y-86370000D02*
X92630000Y-86370000D01*
%TO.C,D5*%
X134940000Y-127264000D02*
X134940000Y-127420000D01*
X134940000Y-129580000D02*
X134940000Y-129736000D01*
X134940000Y-127264484D02*
G75*
G02*
X138171437Y-127420000I1560000J-1235516D01*
G01*
X135459039Y-127420000D02*
G75*
G02*
X137540961Y-127420000I1040961J-1080000D01*
G01*
X137540961Y-129580000D02*
G75*
G02*
X135459039Y-129580000I-1040961J1080000D01*
G01*
X138171437Y-129580000D02*
G75*
G02*
X134940000Y-129735516I-1671437J1080000D01*
G01*
%TO.C,D9*%
X69940000Y-89764000D02*
X69940000Y-89920000D01*
X69940000Y-92080000D02*
X69940000Y-92236000D01*
X69940000Y-89764484D02*
G75*
G02*
X73171437Y-89920000I1560000J-1235516D01*
G01*
X70459039Y-89920000D02*
G75*
G02*
X72540961Y-89920000I1040961J-1080000D01*
G01*
X72540961Y-92080000D02*
G75*
G02*
X70459039Y-92080000I-1040961J1080000D01*
G01*
X73171437Y-92080000D02*
G75*
G02*
X69940000Y-92235516I-1671437J1080000D01*
G01*
%TO.C,D10*%
X79440000Y-72264000D02*
X79440000Y-72420000D01*
X79440000Y-74580000D02*
X79440000Y-74736000D01*
X79440000Y-72264484D02*
G75*
G02*
X82671437Y-72420000I1560000J-1235516D01*
G01*
X79959039Y-72420000D02*
G75*
G02*
X82040961Y-72420000I1040961J-1080000D01*
G01*
X82040961Y-74580000D02*
G75*
G02*
X79959039Y-74580000I-1040961J1080000D01*
G01*
X82671437Y-74580000D02*
G75*
G02*
X79440000Y-74735516I-1671437J1080000D01*
G01*
%TO.C,D2*%
X135440000Y-72264000D02*
X135440000Y-72420000D01*
X135440000Y-74580000D02*
X135440000Y-74736000D01*
X135440000Y-72264484D02*
G75*
G02*
X138671437Y-72420000I1560000J-1235516D01*
G01*
X135959039Y-72420000D02*
G75*
G02*
X138040961Y-72420000I1040961J-1080000D01*
G01*
X138040961Y-74580000D02*
G75*
G02*
X135959039Y-74580000I-1040961J1080000D01*
G01*
X138671437Y-74580000D02*
G75*
G02*
X135440000Y-74735516I-1671437J1080000D01*
G01*
%TO.C,R3*%
X93230000Y-88630000D02*
X99770000Y-88630000D01*
X93230000Y-88960000D02*
X93230000Y-88630000D01*
X93230000Y-91040000D02*
X93230000Y-91370000D01*
X93230000Y-91370000D02*
X99770000Y-91370000D01*
X99770000Y-88630000D02*
X99770000Y-88960000D01*
X99770000Y-91370000D02*
X99770000Y-91040000D01*
%TO.C,J1*%
X115845000Y-140880000D02*
X115845000Y-139500000D01*
X117225000Y-140880000D02*
X115845000Y-140880000D01*
X118495000Y-138120000D02*
X121145000Y-138120000D01*
X118495000Y-140880000D02*
X118495000Y-138120000D01*
X118495000Y-140880000D02*
X121145000Y-140880000D01*
X121145000Y-140880000D02*
X121145000Y-138120000D01*
%TO.C,R4*%
X118230000Y-133130000D02*
X124770000Y-133130000D01*
X118230000Y-133460000D02*
X118230000Y-133130000D01*
X118230000Y-135540000D02*
X118230000Y-135870000D01*
X118230000Y-135870000D02*
X124770000Y-135870000D01*
X124770000Y-133130000D02*
X124770000Y-133460000D01*
X124770000Y-135870000D02*
X124770000Y-135540000D01*
%TO.C,D4*%
X145940000Y-110764000D02*
X145940000Y-110920000D01*
X145940000Y-113080000D02*
X145940000Y-113236000D01*
X145940000Y-110764484D02*
G75*
G02*
X149171437Y-110920000I1560000J-1235516D01*
G01*
X146459039Y-110920000D02*
G75*
G02*
X148540961Y-110920000I1040961J-1080000D01*
G01*
X148540961Y-113080000D02*
G75*
G02*
X146459039Y-113080000I-1040961J1080000D01*
G01*
X149171437Y-113080000D02*
G75*
G02*
X145940000Y-113235516I-1671437J1080000D01*
G01*
%TO.C,D8*%
X69670000Y-110264000D02*
X69670000Y-110420000D01*
X69670000Y-112580000D02*
X69670000Y-112736000D01*
X69670000Y-110264484D02*
G75*
G02*
X72901437Y-110420000I1560000J-1235516D01*
G01*
X70189039Y-110420000D02*
G75*
G02*
X72270961Y-110420000I1040961J-1080000D01*
G01*
X72270961Y-112580000D02*
G75*
G02*
X70189039Y-112580000I-1040961J1080000D01*
G01*
X72901437Y-112580000D02*
G75*
G02*
X69670000Y-112735516I-1671437J1080000D01*
G01*
%TD*%
M02*
